<?xml version="1.0" encoding="UTF-8" standalone="no"?>
<!-- Created with Inkscape (http://www.inkscape.org/) -->

<svg
   width="512mm"
   height="512mm"
   viewBox="0 0 512 512"
   version="1.1"
   id="svg42152"
   inkscape:label="Shadow"
   inkscape:version="1.1.1 (3bf5ae0d25, 2021-09-20)"
   sodipodi:docname="yggdrasil.svg"
   xmlns:inkscape="http://www.inkscape.org/namespaces/inkscape"
   xmlns:sodipodi="http://sodipodi.sourceforge.net/DTD/sodipodi-0.dtd"
   xmlns="http://www.w3.org/2000/svg"
   xmlns:svg="http://www.w3.org/2000/svg">
  <sodipodi:namedview
     id="namedview42154"
     pagecolor="#ffffff"
     bordercolor="#666666"
     borderopacity="1.0"
     inkscape:pageshadow="2"
     inkscape:pageopacity="0.0"
     inkscape:pagecheckerboard="0"
     inkscape:document-units="mm"
     showgrid="false"
     inkscape:zoom="0.25"
     inkscape:cx="342"
     inkscape:cy="1364"
     inkscape:window-width="2744"
     inkscape:window-height="1822"
     inkscape:window-x="36"
     inkscape:window-y="112"
     inkscape:window-maximized="0"
     inkscape:current-layer="svg42152" />
  <defs
     id="defs42149">
    <linearGradient
       id="linearGradient67010"
       inkscape:swatch="solid">
      <stop
         style="stop-color:#c6e4cb;stop-opacity:1;"
         offset="0"
         id="stop67008" />
    </linearGradient>
    <clipPath
       clipPathUnits="userSpaceOnUse"
       id="clipPath75096">
      <g
         inkscape:label="Clip"
         id="use75098" />
    </clipPath>
    <filter
       style="color-interpolation-filters:sRGB;"
       inkscape:label="Drop Shadow"
       id="filter75441"
       x="-0.03892915"
       y="-0.03844393"
       width="1.095314"
       height="1.0883812">
      <feFlood
         flood-opacity="1"
         flood-color="rgb(0,0,0)"
         result="flood"
         id="feFlood75431" />
      <feComposite
         in="flood"
         in2="SourceGraphic"
         operator="in"
         result="composite1"
         id="feComposite75433" />
      <feGaussianBlur
         in="composite1"
         stdDeviation="20"
         result="blur"
         id="feGaussianBlur75435" />
      <feOffset
         dx="30"
         dy="20"
         result="offset"
         id="feOffset75437" />
      <feComposite
         in="offset"
         in2="offset"
         operator="atop"
         result="composite2"
         id="feComposite75439" />
    </filter>
  </defs>
  <path
     id="path74070"
     style="color:#000000;display:inline;fill:#000000;fill-opacity:1;fill-rule:evenodd;stroke:#f2f2f2;stroke-width:37.7953;stroke-miterlimit:4;stroke-dasharray:none;stroke-opacity:0.187243;filter:url(#filter75441)"
     d="m 946.36328,103.57617 c -49.95183,0 -93.20803,23.0757 -125.01953,52.02539 -5.79123,5.27025 -11.31514,10.7373 -16.61523,16.35938 -6.79343,-3.40476 -13.55226,-6.86114 -20.67579,-9.78321 -22.38438,-9.18204 -47.53635,-15.37969 -73.61328,-16.0039 -1.2673,-0.0303 -2.53699,-0.0471 -3.80859,-0.0508 -0.3179,-0.001 -0.63499,-7.4e-4 -0.95313,0 -0.9544,0.002 -1.91078,0.0118 -2.86718,0.0293 h -0.002 c -17.85684,0.32954 -36.059,3.35655 -54.02734,9.89649 -46.93937,17.08453 -79.69389,53.56249 -99.68555,91.64648 -3.63084,6.91675 -6.63576,14.00935 -9.6875,21.08789 -7.65518,-0.89618 -15.29905,-1.84037 -23.10351,-2.15429 -2.68611,-0.10806 -5.39165,-0.16879 -8.11328,-0.18164 -0.51032,-0.002 -1.02157,-0.003 -1.53321,-0.002 -0.0852,1.9e-4 -0.17054,-2.8e-4 -0.25586,0 -0.0853,2.8e-4 -0.17065,7.6e-4 -0.25586,0.002 -2.04703,0.009 -4.10176,0.0441 -6.16406,0.10937 -38.49611,1.21931 -79.40648,12.48519 -112.88867,40.58008 -38.26532,32.10841 -56.5676,77.5881 -62.32813,120.21289 -0.86473,6.39911 -1.50253,12.78412 -1.95117,19.15234 0.12623,-0.019 0.045,0.0215 0.18555,-0.002 1.03975,-0.17348 1.96638,-0.79326 3,-1 1.47087,-0.29405 3,0 4.5,0 3.77213,0 7.16948,0.27432 10.57422,1.12891 -13.61151,2.47387 -27.19467,5.43184 -40.64844,9.72461 -40.97692,13.07472 -82.58854,38.99631 -107.56445,82.25586 -24.97592,43.25948 -26.61855,92.25878 -17.45313,134.2832 1.6653,7.63555 3.86864,15.02908 6.08203,22.41601 -6.42267,4.22434 -12.86906,8.40241 -19.0332,13.16602 -34.03389,26.30116 -64.269316,64.89104 -72.943358,114.08398 -8.674046,49.19295 6.537563,95.79707 29.523438,132.15235 4.17466,6.60279 8.81361,12.75325 13.41797,18.93554 -4.60343,6.1811 -9.24213,12.33009 -13.41602,18.93164 -22.985798,36.35524 -38.19943,82.96124 -29.525388,132.15424 8.674042,49.1929 38.909468,87.7828 72.943358,114.084 2.35207,1.8177 4.72635,3.59 7.11914,5.3242 0.11859,-0.2714 0.19926,-0.6384 0.30664,-0.8711 1.20239,-2.6052 0.1655,-0.04 1.41407,-2.1211 0.16325,-0.2721 0.20157,-0.6041 0.35351,-0.8828 0.44586,-0.8174 1.49868,-2.3212 2.12109,-3.0058 0.8893,-0.9783 2.86717,-2.5821 4.06641,-3.1817 0.86777,-0.4339 1.81593,-0.3524 2.65039,-0.5312 2.41861,-0.5183 4.75713,-1.6943 7.24805,-1.9434 0.18934,-0.019 0.38411,0.04 0.57422,0.025 0.0281,-0.077 0.0656,-0.1493 0.0937,-0.2266 -5.12282,13.9528 -9.75969,28.1549 -12.9961,42.9942 -9.16542,42.0244 -7.52279,91.0216 17.45313,134.2812 24.97591,43.2595 66.58753,69.1831 107.56445,82.2578 7.44132,2.3744 14.94711,4.1028 22.44727,5.879 -5e-4,-0.01 4.9e-4,-0.017 0,-0.025 4.9e-4,0.01 0.001,0.017 0.002,0.025 0.44688,7.6942 0.8446,15.3868 1.89062,23.1269 5.76051,42.6248 24.06279,88.1044 62.32813,120.2129 38.2653,32.1084 86.23338,42.2365 129.21094,40.5078 7.80446,-0.3139 15.44833,-1.2581 23.10351,-2.1543 3.05185,7.0786 6.05665,14.1711 9.6875,21.0879 19.99163,38.0824 52.74616,74.562 99.68555,91.6465 46.93935,17.0845 95.47898,10.1966 135.27344,-6.127 7.20591,-2.9559 14.23132,-6.1816 21.09961,-9.6308 -0.0306,-0.1023 -0.072,-0.2023 -0.125,-0.2949 -0.0193,-0.02 -0.0392,-0.04 -0.0586,-0.061 0.0195,0.021 0.041,0.04 0.0606,0.061 5.28734,5.6061 10.53669,11.2418 16.3125,16.498 31.8115,28.9497 75.0677,52.0234 125.01953,52.0234 49.95187,0 93.20601,-23.0737 125.01761,-52.0234 5.7821,-5.262 11.1321,-10.8365 16.4238,-16.4492 6.8536,3.4404 13.6775,6.9258 20.8672,9.875 39.7944,16.3236 88.3321,23.2115 135.2715,6.1269 46.9394,-17.0845 79.6938,-53.5605 99.6855,-91.6445 3.6296,-6.9144 6.6346,-14.0039 9.6856,-21.0801 7.6564,0.8965 15.3016,1.8403 23.1074,2.1543 42.9775,1.7287 90.9436,-8.3994 129.209,-40.5078 38.2653,-32.1084 56.5695,-77.5881 62.33,-120.2129 1.0397,-7.6924 1.7568,-15.3631 2.2032,-23.0097 -0.026,-0.011 -0.082,-0.012 -0.096,-0.012 -0.023,-0.011 -0.026,-0.051 -0.049,-0.051 -0.064,-0.011 -0.1314,0.011 -0.1953,0 -0.017,0 -0.069,-0.014 -0.123,-0.024 7.5507,-1.7843 15.1065,-3.5277 22.5976,-5.918 40.977,-13.0747 82.5886,-38.9983 107.5645,-82.2578 24.9759,-43.2596 26.6205,-92.2568 17.4551,-134.2812 -1.6652,-7.635 -3.8688,-15.0277 -6.0821,-22.4141 6.4228,-4.2243 12.8691,-8.4024 19.0332,-13.166 34.0339,-26.3012 64.2674,-64.895 72.9414,-114.0879 8.6741,-49.193 -6.5376,-95.7971 -29.5234,-132.15229 -4.1739,-6.60158 -8.8126,-12.75042 -13.416,-18.93164 4.6031,-6.1807 9.2424,-12.32858 13.416,-18.92969 22.9859,-36.35535 38.1975,-82.9614 29.5234,-132.15429 -8.6741,-49.19297 -38.9095,-87.78485 -72.9433,-114.08594 -6.1595,-4.76001 -12.4651,-9.22494 -18.8828,-13.44531 -0.023,0.10356 -0.019,0.2153 -0.08,0.31054 -0.043,0.0655 -0.1171,0.11525 -0.1817,0.15821 2.2394,-7.45568 4.5141,-14.89673 6.1954,-22.60547 9.1654,-42.02442 7.5208,-91.02371 -17.4551,-134.2832 -24.9759,-43.25955 -66.5875,-69.18115 -107.5645,-82.25586 -7.4413,-2.37434 -14.9471,-4.1028 -22.4472,-5.87891 -0.4468,-7.69421 -0.8446,-15.38681 -1.8907,-23.12695 -5.7605,-42.62479 -24.0647,-88.10642 -62.33,-120.21485 -35.3133,-29.6313 -78.8898,-40.54305 -119.1817,-40.6914 -0.4796,-0.002 -0.9588,-0.001 -1.4375,0 -0.1595,4.8e-4 -0.319,9e-4 -0.4785,0.002 -2.7215,0.013 -5.4272,0.0756 -8.1133,0.18359 -7.8051,0.31396 -15.4497,1.25799 -23.1054,2.1543 -3.0515,-7.07744 -6.0553,-14.17035 -9.6856,-21.08594 -19.9917,-38.08398 -52.7463,-74.55999 -99.6855,-91.64453 -17.6024,-6.4067 -35.4291,-9.44228 -52.9356,-9.87305 -1.3677,-0.0336 -2.7324,-0.0524 -4.0957,-0.0547 -0.2271,-3.7e-4 -0.4544,-7e-4 -0.6816,0 -0.2272,7.1e-4 -0.4547,0.002 -0.6817,0.004 -27.2403,0.16162 -53.5599,6.48614 -76.8769,16.05078 -7.2209,2.96202 -14.2606,6.19694 -21.1426,9.6543 -0.021,0.0156 0.031,0.0946 0.033,0.13672 -5.2487,-5.55895 -10.4519,-11.1529 -16.1816,-16.36719 -31.8116,-28.94969 -75.06574,-52.02539 -125.01761,-52.02539 z m 141.56052,68.75586 c 0.015,-0.0448 0.021,-0.13091 0.2188,0.16602 0.015,0.0231 0.014,0.0479 0.016,0.0723 -0.076,-0.0809 -0.1583,-0.15745 -0.2344,-0.23828 z m 16.5606,18.89453 c 0.4192,0.50847 0.8392,1.0153 1.2558,1.52539 -0.4144,-0.51124 -0.8387,-1.01583 -1.2558,-1.52539 z m 15.6816,20.125 c 0.4825,0.65317 0.9386,1.31393 1.418,1.96875 -0.475,-0.65539 -0.9399,-1.31499 -1.418,-1.96875 z m -173.80272,5.61133 c 16.09867,0 28.54282,5.40941 44.63281,19.16602 1.38363,1.18297 2.6254,2.0171 4.07032,3.33203 3.1e-4,2.9e-4 -3.2e-4,0.002 0,0.002 -1.44526,-1.31525 -2.68954,-2.15843 -4.07032,-3.33398 -15.19438,11.50587 -30.12066,22.75322 -44.63281,33.44336 -14.49414,-10.67698 -29.39985,-21.85118 -44.63672,-33.44141 16.09164,-13.75878 28.53692,-19.16797 44.63672,-19.16797 z M 1182.666,258.9707 c 7.7423,-0.39151 14.8834,0.85545 22.4981,3.62696 15.1225,5.50425 24.966,14.84028 35.3769,33.25781 -18.0951,5.6183 -36.1619,11.27976 -53.2773,16.31445 -10.0336,-15.08508 -20.2828,-30.78219 -30.7071,-46.99414 10.0236,-3.78358 18.3671,-5.81357 26.1094,-6.20508 z m -470.77147,0.11328 c 8.45829,0.6981 17.71548,3.31432 29.12891,7.9961 6.47841,2.65744 13.48269,6.24299 20.75,10.30078 -0.12733,-0.0165 -0.27,-10e-4 -0.39649,-0.0176 -4.31221,-0.56246 -8.70014,-1.15225 -12.90429,-2.29883 -4.08144,-1.11313 -7.8884,-2.78495 -11.84375,-4.24218 -1.09214,-0.40237 -2.20828,-0.76537 -3.31055,-1.16211 -9.38128,14.58763 -18.57174,28.77291 -27.63672,42.41015 -17.31252,-5.08614 -35.181,-10.49894 -53.50976,-16.19336 10.41601,-18.43413 20.26118,-27.77458 35.39062,-33.28125 8.21434,-2.98977 15.87374,-4.20981 24.33203,-3.51172 z m 265.00977,32.25391 c 28.9348,19.78872 55.1586,34.79268 76.7148,40.15234 -21.5571,-5.35949 -47.7921,-20.35764 -76.7148,-40.15234 z m 83.6309,34.64453 c 1.8012,2.87985 3.6719,5.93629 5.4804,8.875 -0.195,-0.3168 -0.4125,-0.66225 -0.6074,-0.97851 -2.0936,-0.2095 -4.1423,-0.4638 -6.0977,-0.8086 -1.7935,-0.31625 -3.8197,-1.1149 -5.6835,-1.57812 2.268,-1.794 4.5925,-3.65874 6.9082,-5.50977 z m -228.36723,0.0332 c 2.63079,2.05376 5.38421,4.24872 8.04101,6.35352 -0.35854,-0.28398 -0.75516,-0.59175 -1.11328,-0.875 -1.86391,0.46322 -3.89005,1.26188 -5.68359,1.57813 -1.7943,0.31638 -3.97203,0.25869 -5.88281,0.46093 1.53026,-2.48179 3.11325,-5.0785 4.63867,-7.51758 z m 376.19333,16.82227 c 20.3975,28.46306 39.884,51.50856 58.2891,63.95117 2.8713,-0.95307 5.6615,-1.8208 8.5058,-2.74804 0.6078,2.85264 1.2171,5.87584 1.8145,8.77148 -1.7419,-0.8499 -3.7902,-1.56208 -5.3809,-2.48047 -19.8388,-11.45394 -41.0296,-36.49196 -63.2285,-67.49414 z m -331.8281,18.10938 c 5.52616,4.32751 11.02439,8.66438 16.72266,12.9414 -5.77593,-4.31774 -11.12301,-8.57049 -16.72266,-12.9414 z m 213.8945,13.26953 c 3.6993,5.93258 7.365,11.86336 11.2422,17.80664 -3.9352,-6.00659 -7.4897,-11.80967 -11.2422,-17.80664 z m -193.01754,2.66015 c 6.9091,5.11681 13.89942,10.19123 21.10351,15.07617 -7.22937,-4.88408 -14.1807,-9.9701 -21.10351,-15.07617 z m 488.82614,3.10547 c 21.1692,-0.19582 34.1791,3.66145 46.5117,14.00977 12.3393,10.35389 18.3969,22.5034 21.879,43.40625 -19.0432,-0.91174 -37.7414,-1.80591 -55.6504,-2.93555 -4.2549,-17.54928 -8.504,-35.74467 -12.7403,-54.48047 z m -879.76755,0.004 c -4.18181,18.47867 -8.31247,36.95438 -12.50977,54.29297 -18.08141,1.14694 -36.80013,2.17589 -56.05273,3.09765 3.47012,-21.14338 9.65573,-32.96575 22.07031,-43.38281 12.32833,-10.3447 25.33615,-14.20086 46.49219,-14.00781 z m 597.22655,15.00586 c 4.9856,7.56827 10.0987,15.11907 15.4785,22.56054 -5.4051,-7.44948 -10.476,-14.99889 -15.4785,-22.56054 z m -486.2285,9.11133 c 2.77771,0.90109 5.70382,1.88673 8.51367,2.81836 -1.60957,1.08557 -3.25246,2.49029 -4.8457,3.41015 -19.83509,11.45179 -52.10593,17.28567 -90.04493,21.00977 34.83662,-3.43302 64.53048,-8.78714 84.50391,-18.50196 0.61,-2.96188 1.25391,-5.81068 1.87305,-8.73632 z m 328.10547,4.86718 c 28.4531,16.47012 59.42363,29.65599 94.05073,35.76172 34.2991,6.04782 60.7183,8.61484 99.6973,-1.24804 3e-4,3e-4 0,-3.1e-4 0,0 9e-4,8.8e-4 10e-4,0.003 0,0.004 6e-4,-1.1e-4 0,1.1e-4 0,0 20.9706,24.9269 45.4125,47.62515 75.5742,65.03906 30.1461,17.4048 62.007,27.06645 94.0586,32.76758 11.1852,30.65349 26.3983,60.40169 48.8242,87.12891 22.3863,26.67848 48.9853,46.80771 77.1739,63.13086 0.041,32.57438 4.1761,65.67311 16.0879,98.40039 11.912,32.72816 30.0193,60.74073 50.9297,85.7168 -11.1028,30.62552 -18.5391,63.1435 -18.5391,97.97265 0,34.81018 7.5632,67.23528 18.6523,97.84378 -20.9527,25.0134 -39.1083,53.063 -51.041,85.8476 -11.9117,32.7273 -16.0479,65.826 -16.0898,98.4004 -28.1888,16.3234 -54.7855,36.4518 -77.1719,63.1309 -22.3877,26.6807 -37.6032,56.3677 -48.7812,86.9648 -32.0698,5.6978 -63.9441,15.5172 -94.1036,32.9297 -30.1466,17.4052 -54.4448,40.1685 -75.4082,65.0762 -32.1386,-5.6387 -65.5063,-7.3377 -99.8652,-1.2793 -34.2981,6.0477 -65.02892,19.0149 -93.25977,35.2656 9.09005,5.2327 17.87892,10.8007 26.45704,16.5567 -8.58249,-5.7793 -17.39089,-11.3378 -26.45704,-16.5567 -28.23209,-16.2516 -58.96405,-29.2196 -93.26367,-35.2676 -14.21604,-2.5066 -28.26327,-3.6904 -42.125,-3.8164 -0.61196,-0.01 -1.22276,-0.01 -1.83398,-0.01 h -1.33203 c -18.48751,0.046 -36.63595,1.9542 -54.40821,5.0703 -20.97079,-24.927 -45.41195,-47.6249 -75.57422,-65.0391 -30.1457,-17.4046 -62.00686,-27.0664 -94.05859,-32.7676 -11.18571,-30.6532 -26.39981,-60.4002 -48.82617,-87.1269 -22.38701,-26.6798 -48.98407,-46.8095 -77.17383,-63.1328 -0.0415,-32.5754 -4.1759,-65.6744 -16.08789,-98.4024 -10.9372,-30.0496 -27.10039,-56.1213 -45.85742,-79.5195 -0.6886,1.3581 -1.20232,2.8127 -1.96484,4.0605 -0.52865,0.865 -1.28409,1.5847 -1.76954,2.4747 -0.23282,0.4266 -0.1108,0.9921 -0.35156,1.414 -0.24794,0.4341 -0.73712,0.681 -1.0625,1.0606 -0.93932,1.0959 -1.54367,2.451 -2.47461,3.5371 -1.60522,1.8727 -4.72926,3.9411 -7.19726,5.7578 -0.3154,0.7315 -0.70695,1.3899 -1.02539,2.1191 16.78068,-38.2642 29.31445,-79.471 29.31445,-124.59178 -10e-6,-34.8077 -7.56238,-67.23101 -18.65039,-97.83789 20.95275,-25.01347 39.10643,-53.06107 51.03906,-85.8457 11.91175,-32.72727 16.04613,-65.82581 16.08789,-98.40039 v -0.004 c -0.29768,0.17238 -0.60633,0.30699 -0.9043,0.47852 28.52043,-16.41448 55.45522,-36.6524 78.07813,-63.61328 22.36154,-26.64947 37.57034,-56.2997 48.74414,-86.85938 -0.026,-7.5e-4 -0.0521,0.002 -0.0781,0 -0.0439,-0.004 -0.089,0.0113 -0.13282,0 -0.0659,-0.007 -0.12156,-0.0205 -0.17773,-0.0312 -1.72381,0.30436 -3.43515,0.4255 -5.15821,0.70703 33.94877,-5.5324 67.77871,-15.28837 99.6875,-33.71094 30.16095,-17.41342 54.60209,-40.11104 75.57227,-65.03711 32.08784,5.61563 65.40153,7.29205 99.70117,1.24415 34.29906,-6.04789 65.03024,-19.01626 93.26172,-35.26758 -0.27206,-0.15661 -0.51945,-0.33892 -0.79101,-0.4961 z m -560.72071,31.82618 c -1.20175,0.10625 -2.40506,0.25012 -3.60742,0.36328 1.20528,-0.11914 2.40275,-0.25124 3.60742,-0.36328 z m 1185.57424,34.61328 c -0.01,0.68151 -0.011,1.36191 -0.02,2.04296 0.011,-0.68051 0.012,-1.36198 0.02,-2.04296 z m -0.9082,25.75 c -0.047,0.75771 -0.1183,1.50468 -0.168,2.26172 0.053,-0.75482 0.1179,-1.50623 0.168,-2.26172 z M 550.98633,545.95508 c -8.5694,0.89181 -17.05786,1.45673 -25.53711,1.99023 8.47648,-0.51698 16.98562,-1.11494 25.53711,-1.99023 z M 520.125,548.3418 c -7.08518,0.39804 -13.80917,0.57387 -20.79688,0.82226 6.90602,-0.23483 13.79478,-0.44234 20.79688,-0.82226 z m 921.0918,2.21289 c 2.9067,0.0836 6.064,0.14189 8.9316,0.24219 -0.4051,2.89341 -0.8671,5.94849 -1.2968,8.8789 -1.3341,-1.38294 -3.0399,-2.73923 -4.211,-4.13476 -1.2004,-1.43068 -2.266,-3.38978 -3.4238,-4.98633 z m -989.38477,0.10937 c -1.22797,1.70795 -2.47198,3.35426 -3.74805,4.875 -1.17062,1.3951 -2.87589,2.75026 -4.20898,4.13282 -0.41938,-2.86012 -0.87306,-5.80287 -1.31836,-8.73243 -4.09924,0.144 -8.57275,0.17299 -12.58203,0.36914 -37.87975,1.85061 -71.57688,5.5665 -95.08203,13.06641 -1.8616,0.59399 -3.21352,1.25136 -4.92188,1.85938 2.36684,18.91195 4.64457,37.46185 6.64649,55.375 -16.55114,7.23912 -33.74155,14.58459 -51.46094,22.01171 -3.97154,-21.05718 -2.20309,-34.28271 5.90039,-48.31836 8.74152,-15.14075 20.33078,-23.42977 43.83594,-30.92968 23.50515,-7.49992 57.20226,-11.21579 95.08203,-13.06641 6.9649,-0.34027 14.63862,-0.43532 21.85742,-0.64258 z m 1112.61327,1.99219 c -0.5758,4.55611 -1.0935,8.85992 -1.668,13.37695 20.2206,7.0891 30.7874,15.23427 38.8907,29.26953 8.0502,13.94353 9.5889,27.42709 5.7187,48.24415 -17.5827,-7.40329 -34.8312,-14.70325 -51.2246,-21.92383 -0.011,0.0597 -0.028,0.11808 -0.035,0.17968 v 0.0625 c -0.011,0.0552 -0.034,0.11437 -0.049,0.16993 -0.01,0.02 -0.013,0.0528 -0.019,0.0801 2.4933,-22.37215 5.3613,-45.5205 8.3867,-69.45898 z m -1120.5996,7.04297 c -15.42122,15.97945 -41.51042,31.19548 -73.0957,46.33789 31.5869,-15.15566 57.67599,-30.3588 73.0957,-46.33789 z m 998.1738,47.42187 c -0.9667,6.8333 -1.9579,13.64484 -2.7988,20.59766 0.8377,-7.03908 1.831,-13.68033 2.7988,-20.59766 z m -3.373,26.32422 c -0.9482,8.34781 -1.831,16.7362 -2.4453,25.2168 0.6014,-8.50063 1.5127,-16.86335 2.4453,-25.2168 z m 113.8613,25.71485 c -2.6537,34.86599 -2.5208,64.99325 3.6055,86.29882 -6.1254,-21.30624 -6.2709,-51.44098 -3.6055,-86.29882 z m -1324.84374,10.0664 c -0.6928,0.33747 -1.38825,0.66336 -2.08008,1.00391 0.69199,-0.34472 1.38712,-0.66229 2.08008,-1.00391 z m -22.91797,12.00977 c -0.67121,0.37317 -1.33628,0.75952 -2.00586,1.13672 0.66884,-0.37981 1.33545,-0.76081 2.00586,-1.13672 z m 223.9336,25.67969 c -7.93875,3.86456 -15.91443,7.38755 -23.89258,10.86718 7.98096,-3.46252 15.96557,-7.02491 23.89258,-10.86718 z m 1274.50391,12.00976 c -0.2707,0.7266 -0.5381,1.45314 -0.8125,2.17774 0.2768,-0.72302 0.5396,-1.45266 0.8125,-2.17774 z m -1302.7461,0.82031 c -6.64274,2.85005 -13.01478,5.3613 -19.61523,8.03125 6.52596,-2.62806 13.04676,-5.22804 19.61523,-8.03125 z m 1293.0879,23.05664 c -0.3327,0.76438 -0.6856,1.50914 -1.0215,2.27149 0.3386,-0.75875 0.686,-1.51072 1.0215,-2.27149 z m -1356.28126,2.40821 c -0.20508,0.0814 -0.42988,0.17254 -0.63476,0.2539 -0.5309,1.84627 -0.85159,4.00111 -1.47461,5.71289 -0.63855,1.75439 -1.80206,3.65667 -2.60547,5.45704 -1.38091,-2.55888 -2.90895,-5.32199 -4.25586,-7.85547 2.91396,-1.17905 6.00567,-2.39228 8.9707,-3.56836 z m 1218.87106,0.2539 c 2.688,1.06738 5.4654,2.14683 8.2266,3.22657 -1.4177,2.66903 -2.9466,5.47266 -4.4023,8.16992 -0.8656,-1.91826 -1.6704,-3.81927 -2.3497,-5.68555 -0.6228,-1.71122 -0.9438,-3.86531 -1.4746,-5.71094 z m 115.041,43.97852 c -2.0972,4.08446 -4.0578,7.95182 -6.1425,12 16.5762,13.57712 23.7209,24.8466 26.5351,40.80664 2.7946,15.84895 -0.3684,29.04084 -11.1133,47.26562 -13.9133,-12.86159 -27.8494,-25.67761 -40.7675,-37.98242 9.9515,-20.07288 20.5166,-40.74373 31.4882,-62.08984 z m -133.7851,9.52344 c -3.227,6.05847 -6.4713,12.08273 -9.6211,18.29492 3.1753,-6.29259 6.3653,-12.15954 9.6211,-18.29492 z m -1309.54493,2.63281 c 8.73215,16.94794 17.3087,33.58946 25.28516,49.66406 -13.0701,12.45936 -26.70157,25.23717 -40.8086,38.27344 -10.7562,-18.23728 -13.92272,-31.43344 -11.12695,-47.28906 2.79703,-15.86271 10.28985,-27.18194 26.65039,-40.64844 z m 1297.96093,19.74023 c -3.9281,7.85711 -7.7922,15.79767 -11.4297,23.91602 3.632,-8.14314 7.5152,-16.04801 11.4297,-23.91602 z m 97.8613,63.81641 c -14.4461,31.88787 -24.6573,60.28169 -26.2304,82.4375 2.261,2.01011 4.4076,3.99245 6.6328,5.99219 -2.1667,1.95272 -4.4804,3.99178 -6.6895,5.95703 -0.1348,-1.93279 -0.5429,-4.06228 -0.5429,-5.89844 0,-22.90436 11.0844,-53.76879 26.83,-88.48828 z M 295.36523,967.75586 c 0.13438,1.9294 0.54102,4.05558 0.54102,5.88867 0,22.89696 -11.07717,53.74747 -26.81445,88.45317 14.43685,-31.8732 24.64213,-60.2551 26.21484,-82.40239 -2.25895,-2.00823 -4.40383,-3.98843 -6.62695,-5.98633 2.16531,-1.95148 4.47787,-3.98912 6.68554,-5.95312 z m 1385.05857,90.00004 c 10.7544,18.2352 13.9206,31.4307 11.125,47.2851 -2.797,15.8628 -10.2898,27.1819 -26.6504,40.6485 -8.7314,-16.9467 -17.3072,-33.5868 -25.2832,-49.6602 13.0703,-12.4593 26.7016,-25.2373 40.8086,-38.2734 z m -1468.13083,0.019 c 13.91188,12.8602 27.84683,25.6747 40.76367,37.9785 -8.0485,16.2343 -16.51851,32.9614 -25.34766,50.0977 -16.57451,-13.5765 -23.71913,-24.8453 -26.5332,-40.8047 -2.79483,-15.8503 0.36998,-29.0439 11.11719,-47.2715 z m 147.83789,81.4629 c -8.90612,17.1595 -17.97502,33.8513 -26.68945,49.9746 8.765,-16.2113 17.64488,-32.6303 26.68945,-49.9746 z m -27.3457,51.1914 c 0.8653,1.9177 1.67053,3.8178 2.34961,5.6836 0.62323,1.7123 0.94359,3.8679 1.47461,5.7148 6.14112,21.3591 6.26799,51.6015 3.58203,86.5703 2.6759,-34.9782 2.56245,-65.2117 -3.58203,-86.5703 -2.6874,-1.0672 -5.46401,-2.147 -8.22461,-3.2265 1.41781,-2.6693 2.94457,-5.4744 4.40039,-8.1719 z m 1227.41214,0.2246 c 1.3809,2.5589 2.9089,5.322 4.2558,7.8555 -2.7083,1.0958 -5.5852,2.2233 -8.3379,3.3164 0.5306,-1.8459 0.8518,-3.9997 1.4746,-5.711 0.639,-1.7556 1.8033,-3.6592 2.6075,-5.4609 z m -1355.62894,1.9141 c -0.45023,0.964 -0.86852,1.9489 -1.31445,2.916 0.44262,-0.9718 0.86738,-1.9474 1.31445,-2.916 z m 1307.00194,27.08 c -6.392,2.5761 -12.7766,5.1209 -19.209,7.8653 6.5051,-2.7903 12.7441,-5.2482 19.209,-7.8653 z m -24.4238,10.2188 c -7.7029,3.3523 -15.4095,6.7805 -23.0606,10.4883 7.6624,-3.7293 15.3602,-7.1194 23.0606,-10.4883 z m 202.7676,35.0937 c -0.6191,0.3514 -1.237,0.7027 -1.8575,1.0508 0.6213,-0.3455 1.2376,-0.7018 1.8575,-1.0508 z m -22.7891,12.1075 c -0.681,0.3392 -1.3649,0.652 -2.0469,0.9882 0.6818,-0.3321 1.3661,-0.6531 2.0469,-0.9882 z M 456.52734,1288.625 c -0.60267,8.5221 -1.51778,16.9051 -2.45312,25.2793 0.95111,-8.3683 1.83738,-16.7775 2.45312,-25.2793 z m 1151.04296,15.0449 c 3.9709,21.0558 2.2008,34.2793 -5.9023,48.3145 -8.0492,13.9415 -18.9549,22.0142 -38.9121,29.0703 -2.3672,-18.9112 -4.6464,-37.4606 -6.6485,-55.3731 16.5518,-7.239 33.7428,-14.5844 51.4629,-22.0117 z m -1322.23241,0.082 c 17.56146,7.4058 34.76529,14.7069 51.2793,21.9296 -2.48305,22.2155 -5.33619,45.2004 -8.33789,68.9512 0.57589,-4.5568 1.0934,-8.8612 1.66797,-13.3789 -20.21923,-7.0889 -30.78768,-15.2348 -38.89063,-29.2695 -8.049,-13.9413 -9.58675,-27.4215 -5.71875,-48.2324 z m 168.16797,15.8125 c -0.84235,7.0806 -1.84065,13.7613 -2.81445,20.7187 0.97286,-6.8728 1.96873,-13.725 2.81445,-20.7187 z m 1068.48434,21.6816 c -31.6094,15.1654 -57.7193,30.3769 -73.1386,46.3672 15.4201,-15.9912 41.5301,-31.2154 73.1386,-46.3672 z m -73.1406,46.3691 c 0.4196,2.8616 0.8728,5.807 1.3184,8.7383 -3.0206,0.1068 -6.2134,0.1855 -9.2774,0.2735 1.2288,-1.7093 2.4731,-3.3572 3.75,-4.879 1.1706,-1.3951 2.8759,-2.7502 4.209,-4.1328 z m -1004.9746,0 c 1.33334,1.3828 3.03816,2.7375 4.20898,4.1328 1.19983,1.4299 2.26465,3.3888 3.42188,4.9844 -2.90538,-0.084 -6.06132,-0.142 -8.92774,-0.2422 0.40497,-2.8922 0.86737,-5.9459 1.29688,-8.875 z m 949.2188,10.5195 c -6.8447,0.2343 -13.6688,0.437 -20.6075,0.8145 7.0212,-0.3955 13.6818,-0.5667 20.6075,-0.8145 z m -25.1954,1.1582 c -8.7381,0.5258 -17.5135,1.1472 -26.332,2.0528 8.8369,-0.9226 17.5914,-1.5099 26.332,-2.0528 z m -1044.51754,44.5274 c -0.0551,0.7821 -0.12199,1.5608 -0.17383,2.3437 0.0483,-0.7852 0.12229,-1.5593 0.17383,-2.3437 z m -1.06055,25.8808 c -0.0124,0.7651 -0.0114,1.5313 -0.0195,2.2969 0.005,-0.7662 0.01,-1.5312 0.0195,-2.2969 z m 1223.02149,32.0137 c -0.7153,0.1206 -1.4291,0.2425 -2.1445,0.3594 0.7152,-0.1141 1.4294,-0.2414 2.1445,-0.3594 z m -25.4375,3.5644 c -0.8383,0.095 -1.6697,0.1606 -2.5078,0.252 0.8364,-0.087 1.6712,-0.1609 2.5078,-0.252 z m -51.4902,3.9434 c -0.043,0 -0.088,0.01 -0.1309,0.01 -4.5874,0.2241 -8.9161,0.4611 -13.4648,0.6797 -3.4701,21.1445 -9.6553,32.9654 -22.0704,43.3828 -12.3285,10.345 -25.3351,14.2028 -46.4921,14.0097 4.1821,-18.48 8.3143,-36.9569 12.5117,-54.2968 -0.8056,0.051 -1.5259,0.1314 -2.3281,0.1836 23.0698,-1.4981 47.0066,-2.7476 71.8437,-3.961 0.043,0 0.087,-0.01 0.1309,-0.01 z m -1030.31644,0.666 c 19.04318,0.9117 37.74132,1.8061 55.65039,2.9356 4.25502,17.549 8.50594,35.7431 12.74218,54.4785 -21.17042,0.1961 -34.18062,-3.6611 -46.51367,-14.0098 -12.33923,-10.3538 -18.39688,-22.5018 -21.8789,-43.4043 z m 923.57224,6.0528 c -34.854,3.4331 -64.5604,8.7887 -84.541,18.5078 -0.61,2.9617 -1.2522,5.8108 -1.8711,8.7363 -2.7744,-0.9 -5.6974,-1.884 -8.5039,-2.8145 1.6061,-1.0828 3.2461,-2.5 4.8359,-3.4179 19.841,-11.4552 52.1263,-17.2884 90.0801,-21.0117 z m -588.09959,13.8183 c 5.13516,7.0785 9.93975,14.2531 14.70899,21.4356 -4.75342,-7.1888 -9.59736,-14.3643 -14.70899,-21.4356 z m -157.8125,4.7149 c 1.74049,0.8493 3.78744,1.5608 5.37696,2.4785 19.8334,11.4508 41.01871,36.478 63.21093,67.4687 -20.3895,-28.4495 -39.87115,-51.4849 -58.26953,-63.9238 -2.87079,0.9529 -5.66009,1.8211 -8.5039,2.748 -0.60774,-2.8526 -1.21708,-5.8758 -1.81446,-8.7714 z m 175.36133,20.8867 c 3.81365,5.8231 7.25704,11.4471 10.89844,17.2617 -3.58978,-5.7521 -7.14094,-11.5002 -10.89844,-17.2617 z m 185.70898,1.8418 c 7.51665,5.1433 14.8474,10.3772 22.03711,15.7422 -7.16745,-5.3695 -14.55452,-10.6029 -22.03711,-15.7422 z m 58.69728,44.2871 c 1.8979,1.5141 3.9684,3.0535 5.8516,4.5566 0.89,0.2815 1.7972,0.5137 2.666,0.8516 1.5044,0.585 1.5884,0.7526 3.0058,1.4141 3.1175,1.4548 6.5066,2.637 9.3692,4.5957 0.6228,0.4261 1.148,0.983 1.7675,1.414 0.057,0.04 0.1198,0.071 0.1778,0.1094 0.3215,-0.079 0.6394,-0.1526 0.9492,-0.207 1.8378,-0.3241 4.0655,-0.2664 6.0254,-0.4707 -1.5237,2.4722 -3.1512,5.1733 -4.6699,7.6035 -8.2251,-6.4194 -16.6312,-13.0593 -25.1426,-19.8672 z M 827.31836,1613.41 c 2.09207,0.2095 4.13961,0.4621 6.09375,0.8067 24.08295,4.2457 55.01724,22.6896 89.06055,46.4746 -31.52348,-22.0123 -60.21128,-39.1346 -83.37696,-44.8926 -2.26727,1.7933 -4.58975,3.6574 -6.90429,5.5078 -1.60234,-2.5619 -3.26527,-5.2876 -4.87305,-7.8965 z m -121.85742,21.707 c 10.03409,15.086 20.28418,30.7833 30.70898,46.9961 -20.04707,7.5671 -33.37804,8.1213 -48.60742,2.5782 -15.12365,-5.5046 -24.9673,-14.8402 -35.37891,-33.2598 18.09511,-5.6185 36.16195,-11.2797 53.27735,-16.3145 z m 481.53516,0.096 c 17.3259,5.0895 35.2086,10.506 53.5527,16.2051 -10.4143,18.4286 -20.2594,27.7657 -35.3867,33.2715 -15.1367,5.5093 -28.6855,4.6823 -48.5293,-2.7539 10.3099,-16.0341 20.4318,-31.7793 30.3633,-46.7227 z m -256.29493,31.3418 c 19.38891,13.8435 39.52912,28.8035 60.45703,44.7227 -16.24954,13.9671 -28.58844,19.0469 -44.79492,19.0469 -16.0998,0 -28.54508,-5.4092 -44.63672,-19.168 13.06519,-9.9041 25.93866,-19.6325 38.47266,-28.8926 -2.35059,-2.3584 -6.22524,-5.9978 -7.17188,-7.4824 -1.48749,-2.3326 -2.09385,-5.2834 -2.32617,-8.2266 z M 770.7793,1733.465 c 0.55268,0.7644 1.0954,1.5328 1.65234,2.2949 -0.56205,-0.7614 -1.09459,-1.5312 -1.65234,-2.2949 z m 271.291,14.7949 c 0.6414,0.4331 1.2744,0.874 1.918,1.3047 -0.6474,-0.4288 -1.2729,-0.8735 -1.918,-1.3047 z m -255.44335,5.8438 c 0.40699,0.5034 0.82675,0.9982 1.23633,1.5 -0.41167,-0.5007 -0.82717,-0.9978 -1.23633,-1.5 z m 277.35935,8.0332 c 0.627,0.3755 1.2613,0.7408 1.8907,1.1133 -0.6312,-0.3706 -1.2618,-0.7398 -1.8907,-1.1133 z m -259.96482,12.0293 c 0.29963,0.3204 0.62861,0.62 0.92969,0.9394 -0.0593,-0.011 -0.11452,0.034 -0.26367,-0.057 -0.0299,-0.019 -0.0224,-0.071 -0.0488,-0.098 -0.0257,-0.026 -0.075,-0.022 -0.0977,-0.049 -0.15345,-0.1912 -0.0335,-0.18 -0.19532,-0.3418 -0.0998,-0.099 -0.17157,-0.074 -0.24414,-0.1953 -0.021,-0.035 -0.0515,-0.1222 -0.0801,-0.1992 z"
     transform="scale(0.26458333)" />
  <path
     style="fill:#b16d2a;fill-opacity:1;stroke:#534532;stroke-width:15;stroke-linecap:butt;stroke-linejoin:miter;stroke-miterlimit:4;stroke-dasharray:none;stroke-opacity:1"
     d="m 89.063297,350.75323 c 9.132088,-0.46416 7.195177,-6.23081 10.467874,-9.50349 0.352777,-0.3528 1.050479,0.22309 1.496709,0 3.11447,-1.55726 -0.80002,0.0516 0.74836,-1.49672 1.24785,-1.24786 5.08963,-2.00608 6.73519,-2.99342 1.21001,-0.72602 1.7834,-2.2674 2.99342,-2.99342 2.06167,-1.237 3.9577,-0.82034 5.98683,-1.49672 0.23665,-0.0789 -0.22311,-0.6368 0,-0.74835 1.11867,-0.55933 3.27961,-0.34485 4.49013,-0.74834 0.33467,-0.11158 0.40611,-0.66281 0.74836,-0.74835 2.58255,-0.64566 5.64934,0.64563 8.23189,0 1.85562,-0.46392 4.28377,-0.18069 5.98684,-0.74838 0.33468,-0.11154 0.40611,-0.66278 0.74836,-0.74834 3.42847,-0.85712 15.33868,1.3109 17.96051,0 0.22312,-0.11155 -0.20756,-0.60997 0,-0.74835 1.69261,-1.12842 3.8073,-0.0655 5.23848,-1.49672 0.39442,-0.39442 0.35394,-1.10228 0.74836,-1.4967 0.95844,-0.95845 3.64436,-1.07383 4.49013,-1.49672 1.47827,-0.73914 4.39496,-2.68052 5.98683,-3.74176 1.12254,-0.74838 0.74836,-1.49672 2.24507,-2.24507 0.44623,-0.22312 1.02341,0.15777 1.49671,0 1.25898,-0.41966 3.60824,-3.67501 3.74177,-3.74177 0.44623,-0.22312 1.02341,0.15775 1.49671,0 2.33585,-0.77861 -0.24945,-0.49892 0.74835,-1.49672 0.45193,-0.45193 2.77516,-0.31183 3.74178,-2.24507 0.17472,-0.34943 0.36441,-14.62222 0,-15.71543 -0.24842,-0.74525 -1.2483,-1.49984 -1.49671,-2.24506 -0.54906,-1.64717 -0.3853,-2.67484 -0.74836,-4.49014 -0.38418,-1.92093 -2.18259,-3.61683 -2.99342,-5.23849 -0.33467,-0.66934 0.18151,-1.51905 0,-2.24507 -0.46998,-1.87991 10.66889,-10.47212 9.35444,-11.78657 -1.50414,-1.50413 7.59334,-2.89175 6.26747,-3.55469 -0.44623,-0.22312 -6.00823,-8.53393 -6.36101,-8.8867 -1.33001,-1.33001 -0.52851,5.08889 -1.96444,-0.65482 -1.10841,-4.43363 -0.56427,-10.68088 -1.30962,-15.15418 -0.82427,-4.94562 -18.70887,2.47714 -18.70887,-2.61924 0,-12.72203 0.80189,-11.11826 0,-12.72203 -3.72631,-7.45264 -5.27522,-8.25395 -12.72203,-12.72203 -2.34622,-1.40773 -3.61033,-2.20125 -5.98683,-2.99342 -0.66935,-0.22312 -0.86564,-1.18117 -1.49671,-1.49671 -0.59098,-0.29548 -1.61394,0.21038 -2.24507,0 -6.59004,-2.19668 -20.7744,-0.74835 -28.43747,-0.74835 -4.4342,0 -16.835299,1.12342 -20.205578,0 -0.87268,-0.2909 0.575334,-1.49671 -3.741774,-1.49671 -1.8375,0 -2.920664,-1.10435 -4.490127,-1.49671 -0.726012,-0.1815 -1.550234,0.27793 -2.245064,0 -3.741775,-1.49671 0,-1.12253 -2.245064,-2.24507 -1.237607,-0.6188 -1.933106,0.0938 -2.993419,-1.4967 -0.276741,-0.41512 0.121002,-1.01271 0,-1.49672 -0.245774,-0.98308 -2.697678,-3.28916 -1.496711,-4.49012 1.235435,-1.23544 13.417294,1.14907 15.715448,0 2.915812,-1.45791 7.069869,-2.42557 10.476969,-2.99342 0.73817,-0.12303 1.53511,0.23665 2.24506,0 0.23665,-0.0789 -0.23665,-0.66947 0,-0.74835 1.89321,-0.63107 4.01128,0.28222 5.98684,0 1.19786,-0.17113 2.54391,-1.32559 3.74177,-1.49672 1.23472,-0.17638 2.50215,0.13774 3.74177,0 3.51456,-0.3905 6.97289,-1.74448 10.47697,-2.24506 1.92682,-0.27526 4.07873,0.38162 5.98684,0 3.329,-0.6658 8.12755,0.28424 11.22532,-0.74835 3.51628,-1.1721 8.15175,-1.28959 11.97367,-2.24507 2.56138,-0.64034 5.73575,0.83205 8.2319,0 1.90312,-0.63437 3.19093,-1.9038 5.23849,-2.24506 0.98423,-0.16404 2.10095,0.44623 2.99342,0 0.4989,-0.24945 2.86501,8.73385 3.39418,8.55746 0.70995,-0.23665 -1.12678,-9.87267 -0.40077,-10.05417 1.49178,-0.37294 1.60534,-1.55102 2.99342,-2.24506 0.45184,-0.22592 1.89913,0.34593 2.24507,0 1.54837,-1.54838 -2.36612,0.0605 0.74835,-1.49671 0.22312,-0.11156 0.4989,0 0.74836,0 0.74835,-0.24946 1.58871,-0.31079 2.24506,-0.74836 0.40606,-0.27071 2.02436,-2.77271 2.24506,-2.99342 0.35278,-0.35278 1.33895,0.4733 1.49671,0 0.55779,-1.67337 0.26378,-3.54246 0.74836,-5.23848 0.91756,-3.21146 1.95054,-6.59998 2.99342,-9.72861 0.79539,-2.38617 3.08905,-4.87268 3.74177,-7.48355 0.57037,-2.28147 -1.0596,-1.02984 0.74835,-3.74177 0.13838,-0.20756 0.6368,0.22312 0.74836,0 0.81393,-1.62785 -0.017,-9.69471 1.49671,-12.72203 0.4989,-0.99781 -0.4989,-2.74397 0,-3.74177 0.11156,-0.22312 0.57196,0.17639 0.74835,0 0.38735,-0.38735 0.36101,-2.60608 0.74836,-2.99342 0.17639,-0.17639 0.57196,0.17639 0.74835,0 0.27135,-0.27135 1.16643,-8.89246 0.74836,-9.72861 -0.78568,-1.57135 -7.48355,-10.37571 -7.48355,-11.97368 0,-0.24945 0.51674,0.0927 0.74836,0 1.03579,-0.41431 1.99561,-0.9978 2.99341,-1.49671 2.62066,-1.31032 12.042,-7.188543 14.9671,-5.238479 6.37147,4.247649 5.23848,6.982639 5.23848,14.218739 0,3.6923 1.00568,14.94346 0,17.96051 -0.15131,0.45394 -5.17668,11.14806 -5.23848,11.22532 -0.92886,1.16107 -3.087,2.10484 -3.74178,3.74177 -0.27793,0.69484 0.27794,1.55024 0,2.24507 -0.26203,0.65509 -1.21877,0.8482 -1.49671,1.49671 -2.26829,1.43852 -0.19056,3.56511 -0.74835,5.23848 -0.15223,0.45669 -1.34448,1.78837 -1.49671,2.24507 -0.75485,2.26454 -17.21216,15.71544 0.74836,14.96709 1.24618,-0.0519 -5.37208,41.77427 -4.49013,42.65622 0.35278,0.35277 23.59457,-8.58468 8.2319,-39.6628 -0.11054,-0.22362 -0.22312,0.63679 0,0.74835 2.06409,1.03205 6.60439,-0.68296 8.2319,-1.49671 0.63107,-0.31553 0.81222,-1.32558 1.49671,-1.49671 0.72601,-0.1815 1.53511,0.23665 2.24506,0 2.45843,-0.81947 4.38624,-3.31565 6.7352,-4.49013 3.78587,-1.89293 4.56258,-4.73499 7.48354,-5.98683 0.94536,-0.40516 2.17061,-0.13125 2.99342,-0.74836 0.39912,-0.29934 -0.35278,-1.14393 0,-1.49671 2.34495,-2.34494 5.82206,-1.8139 8.2319,-3.74177 0.70232,-0.56186 0.79439,-1.68321 1.49671,-2.24506 0.33532,-0.26826 3.26408,-0.85979 3.74178,-1.49671 0.4733,-0.63107 0.31078,-1.58872 0.74835,-2.24507 0.13837,-0.20755 0.5408,0.13837 0.74835,0 0.58706,-0.39137 1.07338,-0.93226 1.49671,-1.49671 1.83835,-0.26684 0.31079,-1.58871 0.74836,-2.24506 0.14628,-1.80754 2.24506,-1.24726 2.99342,-2.24506 1.56779,-2.09041 1.6682,-6.32983 2.99342,-8.98026 1.34152,-2.68303 -1.0206,-17.61992 0,-21.70229 0.75166,-3.00665 2.22636,-5.91208 2.99342,-8.98025 0.1815,-0.72601 -0.52917,-1.7159 0,-2.24506 1.13167,-1.13169 4.52913,-1.28847 5.98683,-1.49672 4.51808,-0.645436 8.76184,-2.91771 13.47039,-2.245059 1.56181,0.223117 2.95955,1.114067 4.49013,1.49671 2.02425,0.506059 1.26262,-0.982432 3.74177,1.496709 0.35277,0.35278 0,0.99781 0,1.49671 0,7.54392 -2.46597,5.5045 -5.23849,11.97367 -0.40515,0.94536 -0.42312,2.01769 -0.74834,2.99342 -0.66522,1.99562 -1.82372,3.88011 -2.24507,5.98684 -0.30049,1.50242 0.67267,3.89314 0,5.23848 -0.11155,0.22312 -0.66948,-0.23665 -0.74835,0 -0.23667,0.70995 0.14676,1.51124 0,2.24506 -0.0578,0.28921 -1.43888,1.95587 -1.49672,2.24507 -0.19569,0.97843 0.16404,2.00919 0,2.99342 -0.18341,1.1004 -1.14393,1.93508 -1.4967,2.99342 -0.66534,1.99598 0.77814,4.78984 0,6.73519 -0.77433,1.93578 -1.39001,5.02506 -2.24507,6.73519 -1.71246,3.42493 0.31018,-3.17558 -1.49672,2.24506 -0.49585,1.48756 -0.0708,3.88345 -0.74834,5.23849 -0.31555,0.63107 -1.2736,0.82736 -1.49673,1.49671 -0.39441,1.18325 0.5578,2.62619 0,3.74177 -0.85391,1.70783 -1.685,2.06162 -2.24504,3.74177 -0.15777,0.4733 0.35277,1.14394 0,1.49671 -0.39444,0.39442 -1.18732,0.28425 -1.49672,0.74836 -0.27673,0.41511 0.22312,1.05047 0,1.49671 -0.11155,0.22311 -0.57198,-0.17639 -0.74835,0 -1.37279,1.37278 -3.71459,4.43575 -4.49014,5.98683 -0.94951,1.89904 -2.72391,1.19714 -3.74176,3.74178 -0.18529,0.46322 0.22312,1.05047 0,1.49671 -0.60949,1.21896 -3.22945,2.97328 -3.74178,3.74177 -0.27674,0.41511 0.22312,1.05048 0,1.49671 -0.22311,0.44623 -1.27359,-0.44623 -1.49671,0 -0.22312,0.44623 0.27674,1.0816 0,1.49671 -0.3094,0.46411 -1.10229,0.35394 -1.49671,0.74835 -1.84045,1.84045 25.43644,1.70271 24.39485,-0.67314 -2.37138,-5.40912 254.2857,-133.119966 -32.62675,12.64682 -3.19557,1.62352 5.83207,5.08371 7.48355,6.73519 0.17639,0.17639 -0.19447,0.90459 0,0.74836 31.58925,-25.37654 -16.03893,11.78771 -14.55987,13.26677 2.31847,2.31847 5.12417,24.24248 34.01709,12.92564 223.86608,-87.68431 -2.70654,24.75799 -3.74177,29.93418 -0.23911,1.19557 4.9634,2.79523 4.49011,3.74177 -0.31551,0.63109 -1.27357,0.82736 -1.49669,1.49673 -0.31554,0.9466 0.27411,2.03398 0,2.99341 -0.88236,3.08819 -1.17846,1.39351 -2.24507,2.99342 -1.75308,2.62959 -4.31575,8.45714 -5.23849,11.22532 -0.23664,0.70995 0.33468,1.57572 0,2.24507 -1.07542,2.15085 2.45293,4.83305 3.36762,7.57708 0.2844,0.85325 1.14239,1.41837 1.49669,2.24506 0.40516,0.94536 2.10896,1.44562 2.61923,2.33861 0.52509,0.9189 2.78054,2.95474 3.3676,3.83533 0.43757,0.65635 4.14613,2.05644 4.58367,2.71279 0.41217,0.61822 4.68591,2.4408 5.2385,2.99341 2.66239,2.6624 4.1772,3.639 7.48353,4.58367 8.73461,2.4956 8.76511,7.14142 17.49281,9.63507 6.24393,1.78398 12.3952,4.14435 17.9605,7.48353 0.21392,0.12835 -0.22312,0.6368 0,0.74837 0.91993,0.45995 2.07349,0.28837 2.99342,0.74835 2.60196,1.30098 5.11632,2.79926 7.48355,4.49014 2.10431,1.50307 3.79955,3.17775 5.98683,4.49011 1.21359,0.72816 4.09689,1.00745 5.23849,1.49672 1.65338,0.70858 2.81995,2.32534 4.49014,2.99342 0.4632,0.18528 1.03349,-0.18529 1.49669,0 1.76295,0.70516 6.69094,5.50201 7.48356,7.48355 2.8758,7.1895 -5.44016,-4.91397 1.49669,5.98683 1.046,1.64367 2.66107,2.86907 3.74179,4.49011 1.76104,2.64158 -0.13348,2.15207 0.74835,5.23849 0.0499,0.17455 3.08139,4.60462 1.49672,5.23849 -6.53349,2.61339 -11.39407,-0.0633 -17.21218,-2.24507 -3.92917,-1.47344 -9.41311,-3.2294 -12.72201,-5.98684 -0.42852,-0.35708 -0.24945,-1.24724 -0.74835,-1.49669 -0.66937,-0.33467 -1.57572,0.33467 -2.24507,0 -0.4989,-0.24945 -0.30212,-1.16205 -0.74837,-1.49672 -1.02304,-0.76729 -3.64929,-1.40423 -4.49011,-2.24507 -2.41491,-2.41488 -4.72813,-6.57863 -7.48356,-8.2319 -1.46555,-0.87932 -2.51687,-0.13589 -3.74176,-0.74835 -4.60502,-2.30251 4.88368,1.40086 -1.49672,-2.24507 -2.42882,-1.3879 -4.93948,-1.39703 -7.48356,-2.24507 -1.88248,-0.62749 -3.48728,-2.40969 -5.23846,-2.99342 -0.94659,-0.31551 -2.01498,0.19569 -2.99341,0 -4.2449,-0.84896 -7.93679,-3.14449 -11.97369,-4.49011 -1.52017,-1.69648 -3.56511,-0.19058 -5.23849,-0.74837 -0.85325,-0.2844 -1.4406,-1.09448 -2.24507,-1.4967 -2.98831,-1.49415 -6.59019,-1.94728 -9.72859,-2.99341 -0.63993,-0.21331 -2.41716,-1.38147 -2.99342,-1.49672 -0.62839,-0.12568 -5.69442,-0.29242 -5.98683,0 -0.3677,0.36769 -0.38122,9.1568 0,9.72862 2.33928,3.50893 0.34594,0.4907 2.24504,5.23848 0.13102,0.32753 0.49892,0.4989 0.74837,0.74835 0,0.4989 -0.15777,1.02341 0,1.49672 0.33467,1.00402 1.85201,1.26241 2.24507,2.24505 0.27792,0.69484 -0.3347,1.57572 0,2.24507 0.24945,0.49889 1.10228,0.35393 1.4967,0.74834 0.92006,0.92006 1.89894,3.39567 2.99341,4.49014 0.16957,0.16957 6.29193,5.72087 6.73521,5.98683 0.4278,0.2567 1.05047,-0.22312 1.49669,0 0.22313,0.11158 -0.20753,0.61 0,0.74835 1.5807,1.05381 3.58902,1.30252 5.23849,2.24507 2.77328,1.58475 6.72748,3.73409 8.98025,5.98683 0.39441,0.39444 0.35393,1.10231 0.74837,1.49672 0.35277,0.35277 1.27357,-0.44622 1.4967,0 0.22312,0.44622 -0.15777,1.02341 0,1.49673 0.11157,0.33467 0.4989,0.49889 0.74835,0.74834 0.49892,0.4989 1.27359,0.82735 1.49672,1.4967 0.31554,0.9466 0,1.99562 0,2.99341 0.4989,1.24728 0.99779,2.49452 1.49672,3.74179 1.4111,3.52777 3.56859,6.79088 4.49011,10.47698 0.0605,0.24198 -0.4989,0 -0.74835,0 h -3.74176 c -1.49672,0 -3.10049,0.55586 -4.49014,0 -8.84457,-3.53783 3.62736,-0.14381 -4.49014,-1.49673 -12.33434,-2.05573 -15.74842,-7.75499 -25.44405,-14.21873 -2.33431,-1.55623 -5.42417,-1.68241 -7.48355,-3.74176 -0.63598,-0.63598 -0.77717,-1.70543 -1.4967,-2.24507 -1.49672,-1.12255 -1.12255,0.56126 -2.24507,0 -1.78177,-0.89088 -5.65738,-3.53232 -8.2319,-2.24507 -0.4989,0.24945 -0.24945,1.24724 -0.74836,1.49669 -0.44623,0.22313 -1.14393,-0.35277 -1.4967,0 -0.35278,0.3528 0.19652,1.03815 0,1.49672 -5.57726,9.29542 0.0898,-0.97274 -2.99342,6.73518 -1.95308,4.8827 -4.65776,10.39913 -5.98684,15.71546 -0.2147,0.85881 -0.24947,2.99344 -0.74835,3.74176 -2.37796,3.56696 -8.78106,5.49424 -12.72204,5.98686 -2.56851,0.32105 -6.64787,0.41783 -8.98025,-0.74837 -0.22312,-0.11155 0.23665,-0.66945 0,-0.74835 -0.70995,-0.23664 -1.60336,0.38502 -2.24506,0 -6.25997,-3.75597 -1.90691,-23.39308 -0.74836,-29.18581 0.51779,-2.58895 1.90701,-3.69271 2.24506,-6.73521 0.76925,-6.92317 1.10001,-14.32698 2.99342,-20.95392 0.9344,-3.27041 2.43094,-13.7981 -2.24506,-14.9671 -2.91673,-0.7292 -7.21029,-1.40169 -10.47697,-0.74835 -3.04923,0.60984 -3.99438,5.49108 -5.98683,7.48355 -0.17639,0.17637 -0.57197,-0.1764 -0.74836,0 -0.5587,0.5587 -8.98566,11.42185 -9.72861,12.72202 -1.07994,1.88991 -1.46758,4.04315 -2.24506,5.98683 6.65166,3.36822 -2.22811,2.95949 -2.24507,2.99341 -0.22311,0.44625 0.18529,1.03349 0,1.49673 -2.16037,5.40091 -7.35437,9.59942 -11.22532,13.47038 -1.54837,1.54837 2.36612,-0.0605 -0.74835,1.4967 -1.40238,0.7012 -7.07451,-0.16965 -8.2319,-0.74835 -0.9466,-0.47329 -1.29846,-1.77176 -2.24507,-2.24507 -1.39692,-0.69845 -3.84155,0.69847 -5.23848,0 -0.22172,-0.11086 -1.22401,-1.83602 -1.49671,-2.24507 -1.00781,-1.51169 -1.8795,-1.16557 -2.24506,-2.99341 -0.37011,-1.85055 -0.44771,-6.44107 0,-8.23191 0.6029,-2.41159 5.37529,-14.55663 4.49012,-17.21215 -0.0789,-0.23664 -0.57196,0.1764 -0.74835,0 -0.63598,-0.63598 -0.86073,-1.60909 -1.49671,-2.24507 -1.18197,-1.18197 -13.42532,-1.38334 -14.21874,-1.49669 -0.34923,-0.0499 -0.41368,-0.6368 -0.74835,-0.74835 -1.4199,-0.47331 -3.00258,0.16526 -4.49013,0 -4.96497,-0.55168 -2.25621,-0.56406 -5.98684,-1.49672 -2.73259,-0.68315 -6.10952,-0.1742 -8.98025,-0.74835 -2.33668,-0.46733 -5.08295,0 -7.48355,0 -5.37836,0 -20.08117,1.03926 -23.198995,0 -2.629299,-0.87643 -4.561583,-1.94812 -7.277129,-3.35454"
     id="path82188"
     sodipodi:nodetypes="cscsssssscsssssssssssssssssssssssscsssssssssssssssssssssssssssssssssscssssssssssssssscsssscsscssssssssssssssssssccssssssssssssssssssssssssssssscsssssssssssssssssssssssssssssssssssssssssssssssssssssscssssssscssssssssssssssscssssssssssssscssssssssssssssscssssssssssssssscssssc" />
  <g
     inkscape:label="Layer 1"
     inkscape:groupmode="layer"
     id="layer1">
    <path
       style="fill:#3f9c53;fill-opacity:1;stroke:#2a5824;stroke-width:15;stroke-linecap:butt;stroke-linejoin:miter;stroke-miterlimit:4;stroke-dasharray:none;stroke-opacity:1"
       d="m 103.35648,231.72381 c 0.22161,-0.9091 -0.23687,-2.97734 0.66482,-2.72728 1.53918,0.42684 1.86398,2.61233 2.99342,3.74177 1.85526,1.85526 1.97018,1.064 3.74177,2.24506 1.12253,0.74836 0.74836,1.49671 2.24506,2.24507 0.44624,0.22312 1.05048,-0.22312 1.49671,0 0.0709,0.0354 0.53958,1.07033 2.24507,1.49671 4.44647,1.11162 19.51902,0.17164 23.19899,-0.74836 0.55856,-0.13964 2.64032,-7.17261 2.99342,-8.2319 1.27213,-3.81638 1.91733,-7.57644 3.74177,-11.22532 1.14856,-2.29712 2.31716,-4.59827 3.74178,-6.73519 0.39137,-0.58706 1.18117,-0.86564 1.49671,-1.49671 0.91993,-1.83986 0.9316,-4.00895 1.49671,-5.98684 0.55219,-1.93267 1.51398,-3.41079 2.24506,-5.23848 1.34292,-3.3573 1.89725,-7.18847 2.99342,-10.47697 0.53096,-1.59287 1.20192,-0.0529 2.24506,-0.74835 0.46411,-0.30941 0.43895,-1.0326 0.74836,-1.49671 1.52928,-2.29392 5.20652,-6.11733 7.48354,-7.48355 2.12371,-1.27422 3.96958,-2.06072 5.98684,-3.74177 5.00521,-4.17101 35.37548,11.76316 2.24507,-3.74177 -0.49424,-0.2313 12.30631,-4.1298 13.47038,-3.74178 4.24962,1.41654 8.80181,2.43504 12.72203,3.74178 3.42323,1.14107 -0.77543,-1.96197 3.74177,0.74835 2.17983,1.3079 4.55461,3.03641 6.73519,4.49013 0.92822,0.61881 2.20459,0.70788 2.99342,1.49671 2.50328,2.50328 5.26753,6.00862 8.2319,8.2319 0.63107,0.4733 1.58872,0.31079 2.24507,0.74836 2.68806,-0.10318 1.74616,2.74396 2.99342,3.74177 1.40464,1.12371 2.94765,2.06793 4.49012,2.99342 6.91765,4.15058 15.32649,6.16653 22.45065,9.72861 1.13767,0.56884 2.57265,0.2473 3.74177,0.74835 0.82669,0.3543 1.40998,1.16268 2.24506,1.49671 1.15805,0.46322 2.51149,-0.20505 3.74178,0 7.31152,1.21859 14.2422,2.24507 21.70229,2.24507 2.77482,0 6.86715,-0.47691 9.7286,0 3.46535,0.57755 7.17026,2.63954 10.47697,3.74177 5.55934,1.85311 11.16502,2.58909 16.4638,5.23848 1.62631,0.81315 3.61217,2.92862 5.23849,3.74178 0.91993,0.45996 2.05353,0.33063 2.99341,0.74835 4.26495,1.89553 8.53236,4.64036 12.72204,6.73519 2.65025,1.32513 4.63979,3.42372 7.48353,4.49013 1.55128,1.59584 3.54248,0.26378 5.23849,0.74836 1.07267,0.30647 1.91113,1.22614 2.99341,1.4967 2.99342,0.74836 2.24507,-0.37417 4.49014,0 8.82362,1.47061 17.94743,1.49671 26.94077,1.49671 3.44139,0 9.51463,-0.0356 12.72202,-0.74835 2.61069,-0.58015 12.6189,-4.77835 14.96711,-6.73519 1.38189,-1.15158 1.82274,-3.12436 2.99341,-4.49013 0.91834,-1.0714 2.36233,-1.73128 2.99342,-2.99342 1.54757,-3.09516 1.25685,-17.39444 0.74835,-20.95393 -0.57717,-4.04013 -2.7912,-9.73274 -4.49014,-13.47038 -1.24024,-2.72853 -4.23175,-6.34763 -5.98684,-8.98026 -1.31267,-1.96903 -3.59952,-2.86354 -4.49011,-5.23848 -0.44661,-1.19097 -0.30175,-2.5508 -0.74837,-3.74178 -1.89159,-5.04425 -6.29857,-9.55034 -9.7286,-13.47038 -6.09153,-6.96175 -10.56066,-15.05077 -17.21215,-21.70229 -1.49672,-1.4967 -2.59694,-3.54352 -4.49014,-4.49012 -0.91993,-0.45997 -2.07348,-0.28839 -2.99341,-0.74836 -2.10487,-1.05243 -3.95409,-2.556 -5.98684,-3.74177 -3.59449,-2.09679 -7.6396,-3.08705 -11.22531,-5.23848 -6.76961,-4.06177 -13.21091,-8.99154 -20.2056,-12.72203 -1.67627,-0.89401 -3.58902,-1.30252 -5.23848,-2.24507 -1.86312,-1.06464 -3.37535,-2.67712 -5.23846,-3.74177 -4.49244,-2.567107 -9.58848,-4.420055 -14.21876,-6.735191 -5.9522,-2.976102 -11.79481,-7.262334 -17.9605,-9.728613 -3.25424,-1.301694 -3.71753,-0.155525 -6.73521,-1.496708 -1.32916,-0.590746 -2.39125,-1.704861 -3.74176,-2.245064 -4.13713,-1.654852 -16.23028,-4.713634 -20.95392,-5.238482 -0.99171,-0.110192 -2.01938,0.216452 -2.99343,0 -1.31135,-0.291413 -2.45509,-1.110705 -3.74177,-1.496711 -3.84643,-1.153928 -8.73118,-1.979007 -12.72203,-2.245064 -9.13928,-0.609285 -18.52688,0 -27.68912,0 -8.02797,0 -16.04393,-0.239572 -23.94735,0.748355 -0.9901,0.123762 -2.02541,-0.242003 -2.99342,0 -1.08227,0.270569 -1.99561,0.997808 -2.99342,1.496709 -1.24726,0.249451 -2.49033,0.520821 -3.74177,0.748355 -6.8662,1.248399 -14.31652,1.529302 -20.95394,3.741775 -1.90793,0.635979 -3.35539,2.287259 -5.23848,2.993419 -8.87954,3.329826 -6.52796,2.786194 -12.72203,8.980254 -3.93192,3.931925 -9.58287,7.264937 -12.72203,11.973676 -0.74514,1.11772 -0.71591,2.64865 -1.4967,3.74177 -0.52278,0.73188 -1.60909,0.86073 -2.24507,1.49671 -0.93901,0.93901 -3.27933,4.75367 -3.74177,5.98684 -1.31494,3.5065 -1.85828,7.08667 -3.74177,10.47696 -2.21101,3.97982 -5.55099,7.65076 -8.23191,11.22532 -0.87272,1.16364 -1.27203,2.66063 -2.24506,3.74178 -3.96256,4.40284 -4.81694,2.78797 -8.2319,7.48354 -0.84251,1.15846 -6.779343,10.96152 -7.483548,12.72203 -1.764191,4.41048 -2.258359,9.02014 -3.741774,13.47039 -0.352777,1.05833 -1.190236,1.92076 -1.496708,2.99342 -0.470578,1.64701 -0.277778,4.33982 -0.748356,5.98683 -0.306475,1.07266 -1.277927,1.89951 -1.496708,2.99342 -0.416597,2.08297 -0.07534,4.71615 -0.748355,6.73519 -0.850128,2.55039 -2.433961,5.43462 -2.99342,8.23191 -0.280826,1.40412 -0.538882,12.39262 0,13.47038 1.009981,2.01996 3.930312,2.52787 5.238483,4.49013 0.437441,0.65616 -0.254325,2.23044 0,2.99342 0.147826,0.44348 2.050169,6.54029 2.245064,6.73519 0.321551,0.32155 4.616614,0.4058 5.986838,0.74835 1.567204,0.3918 3.532704,2.59099 4.573664,3.47564 z"
       id="path84599"
       sodipodi:nodetypes="cssssssssssssssssssssssssscssssssssssssscssssssssssssssssssssssssssssssssscssssssssssssssssssssssssc" />
    <g
       id="g75571">
      <path
         id="path42323"
         style="color:#000000;fill:#e4cbc6;fill-opacity:1;fill-rule:evenodd;stroke:#000000;stroke-width:37.7953;stroke-miterlimit:4;stroke-dasharray:none;stroke-opacity:1"
         d="m 946.36328,103.57617 c -49.95183,0 -93.20803,23.0757 -125.01953,52.02539 -23.10238,21.02407 -41.98994,45.14614 -59.11133,69.98438 7.60624,4.26061 15.75473,10.28001 20.18164,17.6582 1.79585,2.9931 3.85222,9.17102 4.24219,12.55078 0.24095,5.80796 0.54171,12.27953 -3.00586,16.79492 -5.42071,6.77592 -14.63841,5.76932 -22.27344,4.77344 -4.31221,-0.56246 -8.70014,-1.15225 -12.90429,-2.29883 -4.08144,-1.11313 -7.8884,-2.78495 -11.84375,-4.24218 -1.09214,-0.40237 -2.20828,-0.76537 -3.31055,-1.16211 -40.53865,63.03647 -78.22563,121.06623 -112.18359,140.67187 -36.7918,21.24176 -114.75138,23.72133 -196.69336,27.72461 -40.971,2.00164 -83.03871,5.22216 -124.01563,18.29688 -40.97692,13.07472 -82.58854,38.99631 -107.56445,82.25586 -24.97592,43.25949 -26.61855,92.25878 -17.45313,134.2832 8.69671,39.87525 25.56868,76.16125 43.29102,110.93554 -14.29814,-28.13361 -27.81298,-57.36175 -37.1582,-88.55664 29.02446,-19.08198 60.24525,-33.39879 91.19336,-46.40625 4.23417,-1.77962 8.22219,-3.48099 12.42187,-5.24218 -3.97205,-21.0584 -2.20336,-34.28421 5.90039,-48.32032 8.74152,-15.14075 20.33078,-23.42977 43.83594,-30.92968 23.50515,-7.49992 57.20226,-11.21579 95.08203,-13.06641 75.75955,-3.70124 167.84474,3.41383 247.85351,-42.7793 80.00883,-46.19311 119.88948,-129.49874 160.97461,-193.25781 20.54257,-31.87954 40.60974,-59.20248 58.85743,-75.80859 18.24769,-16.60611 31.22007,-22.49805 48.70312,-22.49805 17.48304,0 30.45543,5.89194 48.70313,22.49805 18.24769,16.60611 38.31479,43.92905 58.85739,75.80859 41.0852,63.75907 80.9659,147.0647 160.9746,193.25781 75.6294,43.66463 162.0285,39.70856 235.25,42.26954 0.5684,-4.03555 1.3073,-8.40624 1.8067,-12.35743 4.7552,-37.62563 6.945,-71.45584 3.6406,-95.90625 -0.2599,-1.92337 -0.6698,-3.35516 -0.9687,-5.13476 -76.8198,-3.67791 -148.3067,-7.01474 -183.0372,-27.06641 -36.7918,-21.24175 -77.9175,-87.51636 -122.3554,-156.47851 -22.219,-34.48111 -46.042,-69.30226 -77.8535,-98.25196 -31.8116,-28.94969 -75.06575,-52.02539 -125.01762,-52.02539 z m 521.91992,334.48047 c 33.5308,1.63815 67.7676,4.41359 101.5684,12.41797 2.0134,34.67717 -1.197,68.87588 -5.4063,102.18164 -0.5758,4.55611 -1.0935,8.85992 -1.668,13.37695 20.2206,7.0891 30.7874,15.23427 38.8907,29.26953 8.7414,15.14076 10.1266,29.32172 4.8691,53.42774 -5.2574,24.10602 -18.8875,55.1468 -36.2246,88.87695 -34.6745,67.46032 -86.8789,143.65087 -86.8789,236.03711 0,87.32847 46.6266,160.17347 81.0195,224.86527 3.7786,-1.5254 7.9326,-3.0704 11.6035,-4.6133 34.9625,-14.6947 65.3564,-29.712 84.8789,-44.7988 1.5358,-1.1869 2.5712,-2.2576 3.9629,-3.4063 -35.2247,-68.3667 -68.08,-131.9436 -68.08,-172.04687 0,-42.48351 36.8343,-111.23763 74.3378,-184.20312 18.7521,-36.48274 36.9968,-74.52442 46.1622,-116.54883 9.1654,-42.02442 7.5208,-91.0237 -17.4551,-134.2832 -24.9759,-43.25955 -66.5875,-69.18115 -107.5645,-82.25586 -40.9769,-13.07471 -83.0446,-16.29524 -124.0156,-18.29688 z m 47.3398,117.6582 c 0.045,0.006 0.09,0.0117 0.1348,0.0176 -0.045,-0.006 -0.09,-0.0117 -0.1348,-0.0176 z M 328.27344,748.7793 c -3.77861,1.52533 -7.93252,3.07036 -11.60352,4.61328 -34.96239,14.69466 -65.35836,29.71197 -84.88086,44.79883 -1.53584,1.18688 -2.57107,2.2575 -3.96289,3.40625 35.22478,68.36666 68.08007,131.94357 68.08008,172.04687 0,42.48347 -36.83384,111.23757 -74.33789,184.20317 -18.75203,36.4826 -36.99474,74.5243 -46.16016,116.5488 -9.16542,42.0244 -7.52279,91.0216 17.45313,134.2812 24.97591,43.2595 66.58753,69.1831 107.56445,82.2578 40.97692,13.0747 83.04464,16.2953 124.01563,18.2969 -33.53076,-1.6381 -67.76764,-4.4136 -101.56836,-12.4179 -2.01365,-34.6777 1.19689,-68.8755 5.40625,-102.1817 0.57589,-4.5568 1.0934,-8.8612 1.66797,-13.3789 -20.21923,-7.0889 -30.78768,-15.2348 -38.89063,-29.2695 -8.74152,-15.1407 -10.12465,-29.3198 -4.86719,-53.4258 5.25746,-24.106 18.88741,-55.1468 36.22461,-88.877 34.67441,-67.4603 86.87891,-143.6508 86.87891,-236.03707 -1e-5,-87.32778 -46.62672,-160.17377 -81.01953,-224.86523 z m 1345.75196,414.6816 c 14.2986,28.1339 27.815,57.3612 37.1601,88.5567 -29.0245,19.082 -60.2471,33.4006 -91.1953,46.4082 -4.2337,1.7794 -8.2206,3.4811 -12.4199,5.2422 3.9714,21.057 2.2011,34.2808 -5.9023,48.3164 -8.7416,15.1408 -20.3289,23.4297 -43.834,30.9297 -23.5052,7.4998 -57.2042,11.2177 -95.084,13.0683 -75.7595,3.7013 -167.8427,-3.4138 -247.8516,42.7793 -75.629,43.6646 -115.4018,120.4666 -154.2304,182.5977 3.2106,2.5099 6.6267,5.3341 9.7988,7.7422 30.2071,22.9309 58.4095,41.7439 81.2363,51.1074 1.7952,0.7363 3.2395,1.0976 4.9297,1.7285 41.5948,-64.6889 80.2267,-124.9308 114.957,-144.9824 36.7918,-21.2418 114.7514,-23.7194 196.6934,-27.7227 40.971,-2.0017 83.0387,-5.2222 124.0156,-18.2969 40.977,-13.0747 82.5886,-38.9983 107.5645,-82.2578 24.9759,-43.2596 26.6205,-92.2568 17.4551,-134.2812 -8.6967,-39.8753 -25.5703,-76.1614 -43.293,-110.9356 z M 442.57812,1396.4922 c -0.56835,4.0356 -1.30727,8.4062 -1.80664,12.3574 -4.75526,37.6256 -6.94691,71.4559 -3.64257,95.9063 0.25992,1.9233 0.66983,3.3552 0.96875,5.1347 76.81971,3.6778 148.30659,7.0128 183.03711,27.0645 36.79179,21.2417 77.91752,87.5182 122.35546,156.4804 22.21897,34.4811 46.04203,69.3023 77.85352,98.252 31.8115,28.9497 75.0677,52.0234 125.01953,52.0234 49.95187,0 93.20602,-23.0737 125.01762,-52.0234 28.5592,-25.99 50.665,-56.7138 70.9668,-87.6738 -16.2446,24.66 -33.7985,49.0621 -54.6524,71.1738 -31.0379,-15.595 -59.0483,-35.4753 -85.7871,-55.7734 -3.65784,-2.7769 -7.1254,-5.3788 -10.75,-8.1348 -16.24954,13.9671 -28.58844,19.0469 -44.79492,19.0469 -17.48305,0 -30.45543,-5.8919 -48.70312,-22.4981 -18.24769,-16.606 -38.31485,-43.931 -58.85743,-75.8105 -41.08514,-63.7591 -80.96578,-147.0628 -160.97461,-193.2559 -75.62863,-43.6642 -162.02877,-39.7086 -235.25,-42.2695 z"
         transform="scale(0.26458333)"
         sodipodi:nodetypes="sscsccssscsssssccscssssssssssccscssssccscsssscsscssssscccccsscsssssccscsssscccscssssccscsssssccsscsssssccscssssc" />
      <path
         id="path42631"
         style="color:#000000;fill:#e4cbc6;fill-opacity:1;fill-rule:evenodd;stroke:#000000;stroke-width:37.7953;stroke-miterlimit:4;stroke-dasharray:none;stroke-opacity:1"
         d="m 705.67773,146.12305 c -0.9544,0.002 -1.91078,0.0118 -2.86718,0.0293 h -0.002 c -17.85684,0.32954 -36.059,3.35655 -54.02734,9.89649 -46.93937,17.08453 -79.69389,53.56249 -99.68555,91.64648 -19.99165,38.08399 -30.46696,78.95216 -39.55273,118.95313 -5.26748,23.19059 -10.35555,46.03271 -15.58399,67.63086 50.69799,-3.21587 94.8685,-8.42069 121.63477,-21.43946 1.47173,-7.14603 2.95765,-14.2104 4.51758,-21.07812 8.40026,-36.98294 17.91131,-69.52147 29.3789,-91.36719 11.46761,-21.84571 21.64358,-31.81927 38.07227,-37.79883 16.42868,-5.97955 30.63409,-4.87918 53.46094,4.48438 22.82683,9.36356 51.02917,28.17643 81.23633,51.10742 60.4142,45.86198 126.38104,110.50221 217.36327,126.54492 34.2991,6.04782 60.7183,8.61485 99.6973,-1.24804 -29.5438,-35.11799 -52.0247,-74.09247 -73.9121,-109.60547 -2.0936,-0.2095 -4.1423,-0.4638 -6.0977,-0.8086 -41.8381,-7.37717 -103.14972,-55.58873 -168.49413,-105.19336 -32.67225,-24.80229 -66.96924,-49.37559 -106.76368,-65.69922 -22.38438,-9.18204 -47.53635,-15.37969 -73.61328,-16.0039 -1.2673,-0.0303 -2.53699,-0.0471 -3.80859,-0.0508 -0.3179,-0.001 -0.63499,-7.4e-4 -0.95313,0 z m 679.33397,120.31836 c -0.1595,4.8e-4 -0.319,9.5e-4 -0.4785,0.002 -2.7215,0.013 -5.4272,0.0756 -8.1133,0.18359 -42.9775,1.72873 -83.6082,13.09068 -122.7929,25.22266 -22.7179,7.03367 -45.0441,14.04903 -66.3633,20.32031 28.1345,42.29884 54.7283,77.94904 79.3867,94.61914 6.9236,-2.29812 13.783,-4.54428 20.5098,-6.62695 36.2283,-11.21665 69.1655,-19.25054 93.8183,-20.24219 24.6527,-0.99162 38.3767,2.83439 51.7695,14.07227 13.3928,11.23791 19.5434,24.09058 22.8477,48.54101 3.3044,24.45041 1.1146,58.28062 -3.6406,95.90625 -9.5106,75.25133 -32.5101,164.70096 -0.9121,251.51563 11.912,32.72816 30.0193,60.74073 50.9297,85.7168 15.6411,-43.14361 38.1554,-82.09954 57.9668,-118.81055 -0.8656,-1.91826 -1.6704,-3.81927 -2.3497,-5.68555 -14.5302,-39.92144 -3.4311,-117.12726 6.8555,-198.51953 5.1433,-40.69613 9.2762,-82.68381 3.5156,-125.30859 -5.7605,-42.62479 -24.0647,-88.10642 -62.33,-120.21485 -35.3133,-29.6313 -78.8898,-40.54305 -119.1817,-40.6914 -0.4796,-0.002 -0.9588,-0.001 -1.4375,0 z m 116.961,609.23047 c -5e-4,9e-4 0,0.003 0,0.004 0.021,0.025 0.043,0.0497 0.064,0.0742 -0.021,-0.0258 -0.042,-0.0527 -0.062,-0.0781 z M 1139.4453,443.46484 c -0.041,0.007 -0.082,0.0124 -0.123,0.0195 9e-4,8.9e-4 10e-4,0.003 0,0.004 0.041,-0.007 0.082,-0.0158 0.123,-0.0234 z m -556.14647,98.06641 c -45.04645,7.95351 -89.89458,7.93585 -131.4668,9.13086 -1.22827,1.70841 -2.47166,3.35582 -3.74805,4.87695 -27.30787,32.54426 -99.71865,61.53852 -175.3496,93.32617 -37.81555,15.89384 -76.24346,33.30823 -110.27735,59.60938 -34.03389,26.30116 -64.269316,64.89104 -72.943358,114.08398 -8.674046,49.19295 6.537563,95.79707 29.523438,132.15235 22.98587,36.35527 53.14127,65.86346 83.24023,93.73246 17.45055,16.1576 34.69008,31.985 50.78125,47.3125 22.56459,-45.5138 40.13975,-86.3709 42.24805,-116.06059 -5.45219,-4.84705 -10.827,-9.6649 -15.99414,-14.44922 -27.82804,-25.7663 -51.25236,-50.27286 -64.4375,-71.12695 -13.18514,-20.85408 -16.73512,-34.65366 -13.69922,-51.87109 3.0359,-17.21744 11.09078,-28.96979 30.61328,-44.05664 19.5225,-15.08686 49.91847,-30.10417 84.88086,-44.79883 69.92479,-29.38932 158.88871,-54.19886 218.27344,-124.9707 22.36154,-26.64947 37.57034,-56.2997 48.74414,-86.85938 -0.026,-7.5e-4 -0.0521,0.002 -0.0781,0 -0.0439,-0.004 -0.089,0.0113 -0.13282,0 -0.0659,-0.007 -0.12156,-0.0205 -0.17773,-0.0312 z M 1639.668,851.5332 c -22.5649,45.51445 -40.1419,86.37072 -42.25,116.06055 5.4522,4.84708 10.827,9.6649 15.9941,14.44922 27.828,25.76633 51.2524,50.27293 64.4375,71.12693 13.1852,20.8541 16.7351,34.6537 13.6992,51.8711 -3.0359,17.2175 -11.0908,28.9698 -30.6133,44.0567 -19.5225,15.0868 -49.9164,30.1041 -84.8789,44.7988 -69.9247,29.3893 -158.8886,54.1987 -218.2734,124.9707 -22.4007,26.6962 -37.6229,56.4017 -48.8027,87.0176 0,-4e-4 0.01,4e-4 0.01,0 0.01,-0.018 0.013,-0.035 0.02,-0.053 45.1856,-8.0271 90.1811,-8.0064 131.8808,-9.205 1.2288,-1.7093 2.4731,-3.3572 3.75,-4.879 27.3078,-32.5443 99.7185,-61.5346 175.3496,-93.3222 37.8156,-15.8939 76.2454,-33.3083 110.2793,-59.6094 34.0339,-26.3012 64.2674,-64.895 72.9414,-114.0879 8.6741,-49.193 -6.5376,-95.7971 -29.5234,-132.15233 -22.9859,-36.35532 -53.1412,-65.8635 -83.2402,-93.73242 -17.4499,-16.15699 -34.6887,-31.98387 -50.7793,-47.31055 z m -137.6309,24.21875 c 0.022,0.0249 0.043,0.0489 0.064,0.0742 -0.021,-0.0251 -0.044,-0.0488 -0.064,-0.0742 z M 395.82422,1077.8125 c -0.6886,1.3581 -1.20231,2.8127 -1.96484,4.0605 -0.52865,0.865 -1.28409,1.5847 -1.76954,2.4747 -0.23282,0.4266 -0.1108,0.9921 -0.35156,1.414 -0.24794,0.4341 -0.73712,0.681 -1.0625,1.0606 -0.93932,1.0959 -1.54367,2.451 -2.47461,3.5371 -1.60522,1.8727 -4.72926,3.9411 -7.19726,5.7578 -14.47759,33.5803 -32.22726,64.6776 -48.21875,94.3105 0.86559,1.9183 1.67034,3.8193 2.34961,5.6856 14.53021,39.9214 3.43112,117.1272 -6.85547,198.5195 -5.14333,40.6961 -9.27409,82.6838 -3.51368,125.3086 5.76051,42.6248 24.06279,88.1044 62.32813,120.2129 38.2653,32.1084 86.23338,42.2365 129.21094,40.5078 42.97751,-1.7287 83.61019,-13.0906 122.79492,-25.2226 22.71731,-7.0336 45.04275,-14.0492 66.36133,-20.3204 -28.1337,-42.298 -54.72709,-77.9483 -79.38477,-94.6191 -6.92432,2.2984 -13.7843,4.5441 -20.51172,6.627 -36.22829,11.2166 -69.16564,19.2485 -93.81836,20.2402 -24.65274,0.9916 -38.37673,-2.8344 -51.76953,-14.0723 -13.39277,-11.2378 -19.54332,-24.0887 -22.84765,-48.539 -3.30434,-24.4504 -1.11269,-58.2807 3.64257,-95.9063 9.5105,-75.2513 32.50811,-164.7029 0.91016,-251.5176 -10.9372,-30.0496 -27.10039,-56.1213 -45.85742,-79.5195 z m 411.98633,420.918 c -18.48751,0.046 -36.63595,1.9542 -54.40821,5.0703 29.54499,35.1187 52.02585,74.0974 73.91407,109.6113 2.09276,0.2095 4.14095,0.462 6.0957,0.8067 41.83808,7.3759 103.15168,55.5906 168.49609,105.1953 32.6722,24.8022 66.9693,49.3756 106.7637,65.6992 39.7944,16.3236 88.3321,23.2115 135.2715,6.1269 46.9394,-17.0845 79.6938,-53.5605 99.6855,-91.6445 19.9917,-38.084 30.4689,-78.9541 39.5547,-118.9551 5.2674,-23.1904 10.3558,-46.0326 15.584,-67.6308 -50.7004,3.2154 -94.8723,8.4216 -121.6387,21.4414 -1.4715,7.1445 -2.956,14.2078 -4.5156,21.0742 -8.4003,36.9829 -17.9113,69.5235 -29.3789,91.3691 -11.4676,21.8458 -21.6436,31.8174 -38.0723,37.7969 -16.4287,5.9796 -30.6321,4.8812 -53.459,-4.4824 -22.8268,-9.3635 -51.0292,-28.1765 -81.2363,-51.1074 -60.4143,-45.862 -126.38258,-110.5023 -217.36524,-126.545 -14.21604,-2.5066 -28.26327,-3.6904 -42.125,-3.8164 -0.61196,-0.01 -1.22276,-0.01 -1.83398,-0.01 z"
         transform="scale(0.26458333)"
         sodipodi:nodetypes="ssssssccsssssscccsssssssccsccsssssscccsssssscccccsccsssccsssssccsssssscccssccsssssscccccsssssccccccsssssccssssssccsssssscccccsssssccsssssscsc" />
      <path
         id="path42633"
         style="color:#000000;fill:#e4cbc6;fill-opacity:1;fill-rule:evenodd;stroke:#000000;stroke-width:37.7953;stroke-miterlimit:4;stroke-dasharray:none;stroke-opacity:1"
         d="m 1186.2305,146.12305 c -0.2272,7.1e-4 -0.4547,0.002 -0.6817,0.004 -27.2403,0.16162 -53.5599,6.48614 -76.8769,16.05078 -7.2209,2.96202 -14.2606,6.19694 -21.1426,9.6543 -0.038,0.0287 -0.123,0.0588 0.062,0.25195 0.053,0.0526 0.022,0.0158 0.057,0.043 0.015,-0.008 0.03,-0.0155 0.047,-0.0234 0.061,0.065 0.1224,0.13022 0.1836,0.19531 0.011,-0.0482 0.026,-0.1581 0.2637,0.19922 0.023,0.0344 0.016,0.0734 0.023,0.10742 23.6194,25.14288 43.0058,53.21627 61.0703,81.25 2.4875,3.86042 4.8568,7.49064 7.3203,11.32031 20.0471,-7.56716 33.3782,-8.12113 48.6075,-2.57812 16.4285,5.97959 26.6046,15.95306 38.0722,37.79882 11.4676,21.84572 20.9806,54.38632 29.3809,91.36914 16.8005,73.96593 25.7816,165.88621 85.164,236.65821 22.3866,26.67893 48.9867,46.80757 77.1758,63.13086 -0.059,-46.03707 7.8279,-90.49234 13.8965,-131.87696 -1.3343,-1.38361 -3.0413,-2.74052 -4.2129,-4.13671 -27.3078,-32.54427 -43.2835,-108.88873 -61.4551,-188.89063 -9.0865,-40.00109 -19.5649,-80.8711 -39.5566,-118.95508 -19.9917,-38.08398 -52.7463,-74.55999 -99.6855,-91.64453 -17.6024,-6.4067 -35.4291,-9.44228 -52.9356,-9.87305 -1.3677,-0.0336 -2.7324,-0.0524 -4.0957,-0.0547 -0.2271,-3.7e-4 -0.4544,-7e-4 -0.6816,0 z m -195.23441,90.00586 c -15.19513,11.50644 -30.12194,22.7547 -44.63476,33.44531 41.03399,30.22724 78.33777,54.72791 107.26567,61.91797 2.268,-1.794 4.5925,-3.65874 6.9082,-5.50977 -2.1743,-3.47803 -4.4371,-7.33679 -6.6114,-10.71094 -20.5426,-31.87954 -40.6097,-59.20248 -58.85739,-75.80859 -1.44526,-1.31525 -2.68954,-2.15843 -4.07032,-3.33398 z m -484.59375,30.3164 c -0.0853,2.8e-4 -0.17065,8e-4 -0.25586,0.002 -2.04703,0.009 -4.10176,0.0441 -6.16406,0.10937 -38.49611,1.21931 -79.40648,12.48519 -112.88867,40.58008 -38.26532,32.10841 -56.5676,77.5881 -62.32813,120.21289 -0.86474,6.39911 -1.50253,12.78412 -1.95117,19.15234 0.12623,-0.019 0.045,0.0215 0.18555,-0.002 1.03975,-0.17348 1.96638,-0.79326 3,-1 1.47087,-0.29405 3,0 4.5,0 3.80625,0 7.23428,0.26548 10.66992,1.13867 27.81205,-5.12763 55.77918,-7.23693 83.27149,-8.58008 4.58736,-0.22412 8.91614,-0.46104 13.46484,-0.67968 3.47006,-21.14468 9.65532,-32.96737 22.07031,-43.38477 13.3928,-11.2379 27.11872,-15.06195 51.77149,-14.07031 24.65272,0.99148 57.58808,9.02362 93.8164,20.24023 72.45661,22.43324 156.55447,60.6129 247.53711,44.57032 34.29906,-6.04789 65.03024,-19.01626 93.26172,-35.26758 -39.90066,-22.96846 -74.46037,-52.02406 -107.26758,-77.97266 -1.86391,0.46322 -3.89005,1.26188 -5.68359,1.57813 -41.83812,7.37721 -115.94305,-16.95672 -194.3125,-41.22071 -39.18474,-12.13197 -79.81739,-23.49396 -122.79492,-25.22265 -2.68611,-0.10806 -5.39165,-0.16879 -8.11328,-0.18164 -0.51032,-0.002 -1.02157,-0.003 -1.53321,-0.002 -0.0852,1.9e-4 -0.17054,-2.8e-4 -0.25586,0 z m -63.8457,284.49414 c -4.09924,0.144 -8.57275,0.17299 -12.58203,0.36914 -37.87975,1.85061 -71.57688,5.5665 -95.08203,13.06641 -1.8616,0.59399 -3.21352,1.25136 -4.92188,1.85938 2.36692,18.91261 4.64452,37.46323 6.64649,55.37695 46.69525,-20.42336 86.56724,-40.47823 107.25781,-61.93555 -0.41953,-2.86129 -0.87287,-5.80549 -1.31836,-8.73633 z m 1113.60546,70.6836 c -0.011,0.0597 -0.028,0.11808 -0.035,0.17968 v 0.0625 c -0.011,0.0552 -0.034,0.11437 -0.049,0.16993 -0.011,0.0404 -0.027,0.0994 -0.039,0.16211 -5.6111,50.40726 -8.1312,94.7315 0.076,123.26757 2.688,1.06738 5.4654,2.14683 8.2266,3.22657 1.9251,-3.62223 4.1356,-7.51185 5.9707,-11.08203 17.3371,-33.73017 30.9672,-64.77094 36.2246,-88.87696 0.4159,-1.90696 0.5209,-3.39986 0.8516,-5.18554 -17.5833,-7.40353 -34.8327,-14.70301 -51.2266,-21.92383 z M 457.76953,691.55664 c -39.84113,23.07039 -82.28506,38.4708 -121.16015,53.9082 -0.5309,1.84627 -0.85159,4.00111 -1.47461,5.71289 -14.53022,39.92145 -72.65754,91.93195 -132.85547,147.66993 -30.09899,27.86899 -60.25436,57.37526 -83.24024,93.73046 -22.985801,36.35528 -38.19943,82.96128 -29.525388,132.15428 8.674042,49.1929 38.909468,87.7828 72.943358,114.084 2.35207,1.8177 4.72635,3.59 7.11914,5.3242 0.11859,-0.2714 0.19926,-0.6384 0.30664,-0.8711 1.20239,-2.6052 0.1655,-0.04 1.41407,-2.1211 0.16326,-0.2721 0.20157,-0.6041 0.35351,-0.8828 0.44586,-0.8174 1.49868,-2.3212 2.12109,-3.0058 0.8893,-0.9783 2.86717,-2.5821 4.06641,-3.1817 0.86777,-0.4339 1.81593,-0.3524 2.65039,-0.5312 2.41861,-0.5183 4.75713,-1.6943 7.24805,-1.9434 0.18934,-0.019 0.38411,0.04 0.57422,0.025 9.32219,-25.6847 21.08929,-50.1011 33.25781,-73.7754 2.09941,-4.0845 4.0578,-7.9518 6.14258,-12 -16.57619,-13.5773 -23.72096,-24.8464 -26.53516,-40.8066 -3.0359,-17.2174 0.51407,-31.017 13.69922,-51.8711 13.18514,-20.8541 36.61143,-45.3607 64.43945,-71.12697 55.65607,-51.53261 130.76924,-105.27324 162.36719,-192.08789 11.91175,-32.72727 16.04613,-65.82581 16.08789,-98.40039 z m 1253.61527,3.47266 c -0.023,0.10356 -0.019,0.2153 -0.08,0.31054 -0.045,0.0677 -0.1214,0.12022 -0.1875,0.16407 -9.967,33.18757 -24.6496,64.15069 -39.961,93.93945 -2.0973,4.08446 -4.0578,7.95182 -6.1425,12 16.5762,13.57712 23.7209,24.8466 26.5351,40.80664 3.0359,17.21749 -0.5141,31.01507 -13.6992,51.86914 -13.1852,20.85407 -36.6094,45.36258 -64.4375,71.12891 -55.656,51.53265 -130.7692,105.27315 -162.3672,192.08785 -11.9117,32.7273 -16.0479,65.826 -16.0898,98.4004 39.841,-23.0707 82.2847,-38.4707 121.1601,-53.9082 0.5309,-1.8463 0.8516,-4.0011 1.4746,-5.7129 14.5302,-39.9215 72.6595,-91.932 132.8575,-147.6699 30.0989,-27.8691 60.2543,-57.37522 83.2402,-93.73046 22.9859,-36.35535 38.1975,-82.9614 29.5234,-132.15429 -8.6741,-49.19297 -38.9095,-87.78485 -72.9433,-114.08594 -6.1595,-4.76001 -12.4651,-9.22494 -18.8828,-13.44531 z M 328.38477,1198.6016 c -1.92514,3.6222 -4.1356,7.5118 -5.97071,11.082 -17.3372,33.7302 -30.96715,64.7709 -36.22461,88.8769 -0.41634,1.909 -0.52388,3.4081 -0.85156,5.1915 17.56146,7.4058 34.76529,14.7069 51.2793,21.9296 5.65939,-50.6497 8.23319,-95.2067 -0.008,-123.8535 -2.6874,-1.0672 -5.46401,-2.147 -8.22461,-3.2265 z m 129.38476,57.1328 c 0.059,46.0389 -7.82593,90.497 -13.89453,131.8828 1.33334,1.3828 3.03816,2.7375 4.20898,4.1328 27.30788,32.5443 43.28545,108.8906 61.45704,188.8926 9.08572,40.001 19.56299,80.869 39.55468,118.9531 19.99163,38.0824 52.74616,74.562 99.68555,91.6465 46.93935,17.0845 95.47898,10.1966 135.27344,-6.127 7.20591,-2.9559 14.23132,-6.1816 21.09961,-9.6308 -0.0306,-0.1023 -0.072,-0.2023 -0.125,-0.2949 -0.0259,-0.027 -0.0522,-0.055 -0.0781,-0.082 -0.0593,-0.011 -0.11452,0.034 -0.26367,-0.057 -0.0299,-0.019 -0.0224,-0.071 -0.0488,-0.098 -0.0257,-0.026 -0.075,-0.022 -0.0977,-0.049 -0.15345,-0.1912 -0.0335,-0.18 -0.19532,-0.3418 -0.0998,-0.099 -0.17157,-0.074 -0.24414,-0.1953 -0.0313,-0.052 -0.0688,-0.1804 -0.11914,-0.2969 -23.35787,-24.9847 -42.57546,-52.8282 -60.49219,-80.6328 -2.48791,-3.8608 -4.85655,-7.4922 -7.32031,-11.3223 -20.04707,7.5671 -33.37804,8.1213 -48.60742,2.5782 -16.42866,-5.9796 -26.60465,-15.9512 -38.07227,-37.7969 -11.46757,-21.8457 -20.97868,-54.3863 -29.3789,-91.3692 -16.80053,-73.9658 -25.78324,-165.8881 -85.16797,-236.6601 -22.38701,-26.6798 -48.98407,-46.8095 -77.17383,-63.1328 z m 347.25977,519.4551 c 0.14653,0.035 0.29016,0.087 0.43945,0.1054 0.0336,0 -0.0901,-0.098 -0.0977,-0.098 -0.14951,-0.022 -0.18989,-0.059 -0.25,-0.055 -0.0307,0.015 -0.0611,0.031 -0.0918,0.047 z m 751.0781,-449.5098 c -46.6955,20.423 -86.5677,40.4781 -107.2578,61.9355 0.4196,2.8616 0.8728,5.807 1.3184,8.7383 4.0992,-0.144 8.5727,-0.1733 12.582,-0.3691 37.8798,-1.8506 71.5788,-5.5686 95.084,-13.0684 1.8618,-0.5941 3.2131,-1.2513 4.9219,-1.8594 -2.3673,-18.9125 -4.6463,-37.4632 -6.6485,-55.3769 z m 13.5821,171.1738 c -33.7482,7.9748 -67.9291,10.7453 -101.4063,12.3809 -4.5874,0.2241 -8.9161,0.4611 -13.4648,0.6797 -3.4701,21.1445 -9.6553,32.9654 -22.0704,43.3828 -13.3926,11.2379 -27.1167,15.0638 -51.7695,14.0722 -24.6527,-0.9916 -57.5901,-9.0255 -93.8183,-20.2421 -72.4566,-22.4333 -156.5526,-60.6111 -247.5352,-44.5684 -34.2981,6.0477 -65.02892,19.0149 -93.25977,35.2656 34.96726,20.1287 65.83297,44.9337 95.01177,68.2246 0.89,0.2815 1.7972,0.5137 2.666,0.8516 1.5044,0.585 1.5884,0.7526 3.0058,1.4141 3.1175,1.4548 6.5066,2.637 9.3692,4.5957 0.6228,0.4261 1.148,0.983 1.7675,1.414 0.057,0.04 0.1198,0.071 0.1778,0.1094 0.3215,-0.079 0.6394,-0.1526 0.9492,-0.207 41.8381,-7.3773 115.9449,16.9567 194.3145,41.2207 39.1847,12.1319 79.8174,23.4939 122.7949,25.2226 42.9775,1.7287 90.9436,-8.3994 129.209,-40.5078 38.2653,-32.1084 56.5695,-77.5881 62.33,-120.2129 1.0397,-7.6924 1.7568,-15.3631 2.2032,-23.0097 -0.026,-0.011 -0.082,-0.012 -0.096,-0.012 -0.023,-0.011 -0.026,-0.051 -0.049,-0.051 -0.064,-0.011 -0.1314,0.011 -0.1953,0 -0.019,0 -0.075,-0.014 -0.1347,-0.024 z m -730.5938,118.9473 c -2.26727,1.7933 -4.58975,3.6574 -6.90429,5.5078 2.17425,3.4781 4.43708,7.3367 6.61132,10.7109 20.54257,31.8796 40.60975,59.2045 58.85743,75.8106 1.4434,1.3136 2.68533,2.1502 4.0664,3.3281 13.06519,-9.9041 25.93866,-19.6325 38.47266,-28.8926 -2.35059,-2.3584 -6.22524,-5.9978 -7.17188,-7.4824 -1.52691,-2.3944 -2.1438,-5.4365 -2.36132,-8.457 -34.82926,-24.8683 -66.37787,-44.2636 -91.57032,-50.5254 z"
         transform="scale(0.26458333)" />
      <path
         style="fill:#a0a0a0;stroke:none;stroke-width:1.41421"
         d="m 1402.8998,645.12174 c -44.2312,-37.76151 -70.7311,-84.02644 -88.8369,-155.09674 -2.7743,-10.88945 -8.9378,-38.57268 -13.6968,-61.51829 -14.604,-70.41326 -24.0904,-104.18759 -36.7426,-130.81476 -16.2269,-34.15015 -34.6834,-50.5609 -63.7963,-56.725 -9.7604,-2.06658 -22.725,-1.93746 -31.7933,0.31664 -2.4413,0.60683 -4.4631,-1.59764 -12.0208,-13.10698 -4.9973,-7.61008 -14.9726,-21.68572 -22.1674,-31.27919 -7.1948,-9.59347 -13.0815,-17.67516 -13.0815,-17.95929 0,-1.04725 18.0651,-6.47129 30.7673,-9.23788 74.7781,-16.28702 142.3308,19.80566 178.5065,95.37422 13.5855,28.37906 21.8064,54.2559 33.9499,106.8637 27.2903,118.22579 41.2202,162.51835 58.8133,187.00654 l 5.0651,7.05031 -4.3384,31.31145 c -2.3861,17.22131 -4.7017,35.76623 -5.1458,41.21095 -0.9893,12.12847 -1.7863,16.2635 -3.1348,16.26332 -0.5686,-9e-5 -6.1249,-4.34663 -12.3475,-9.659 z"
         id="path67996"
         transform="scale(0.26458333)" />
      <path
         style="fill:#a0a0a0;stroke:none;stroke-width:1.41421"
         d="m 993.99243,278.9416 -14.34183,-9.55286 4.99347,-3.63367 4.99347,-3.63367 5.18815,5.76446 c 2.85348,3.17046 7.53751,8.69379 10.40901,12.27408 9.1004,11.34674 7.3346,11.15538 -11.24227,-1.21834 z"
         id="path68035"
         transform="scale(0.26458333)" />
      <path
         style="fill:#a0a0a0;stroke:none;stroke-width:1.41421"
         d="m 780.64588,427.65679 c -39.82701,-5.6083 -63.05392,-11.49467 -122.60661,-31.07202 -84.3081,-27.71545 -111.41829,-34.34326 -145.54324,-35.58195 -23.696,-0.86013 -36.50134,1.20659 -50.34256,8.12506 -16.38242,8.18869 -32.53708,26.29392 -37.91906,42.49756 -1.58126,4.76073 -3.09267,6.98177 -4.75105,6.98177 -6.42071,0 -42.25601,3.16357 -56.67884,5.00365 -8.9126,1.13708 -16.64548,2.06742 -17.18418,2.06742 -1.33778,0 3.42147,-21.24413 7.2869,-32.52691 13.88736,-40.53581 39.83573,-71.40892 74.89236,-89.10622 28.40425,-14.33904 63.20584,-20.31397 98.99495,-16.99599 33.95545,3.14797 55.91434,8.29898 123.74369,29.02719 100.16,30.60825 130.83465,37.47704 167.36506,37.47704 h 17.09542 l 20.19974,15.91913 c 11.10985,8.75553 27.13617,20.97221 35.61404,27.1482 l 15.41429,11.22906 -5.86141,2.48935 c -10.7195,4.55258 -32.24899,11.2135 -45.66196,14.12716 -10.22668,2.22151 -19.69412,2.98124 -41.53063,3.3327 -15.55634,0.25039 -30.19345,0.1864 -32.52691,-0.1422 z"
         id="path68074"
         transform="scale(0.26458333)" />
      <path
         style="fill:#a0a0a0;stroke:none;stroke-width:1.41421"
         d="m 352.84628,590.57523 c 0,-1.04986 -0.38217,-3.8197 -0.84927,-6.15521 l -0.84927,-4.24636 12.51653,-2.20504 c 6.8841,-1.21277 15.38032,-2.60401 18.8805,-3.09164 l 6.36396,-0.88661 -7.77818,4.56912 c -13.23329,7.77361 -28.28427,14.16758 -28.28427,12.01574 z"
         id="path68113"
         transform="scale(0.26458333)" />
      <path
         style="fill:#a0a0a0;stroke:none;stroke-width:1.41421"
         d="m 153.86103,1204.4693 c -56.481292,-58.8322 -62.364611,-132.3259 -16.32366,-203.9132 17.45802,-27.14481 39.80942,-51.1713 100.05051,-107.54866 71.83393,-67.22667 97.54413,-96.01738 111.71707,-125.10261 l 3.79663,-7.7913 19.31779,-7.62267 c 16.27778,-6.4231 32.9273,-13.45071 59.36481,-25.05731 l 4.69166,-2.05974 -0.94048,6.77639 c -6.30535,45.4311 -25.2092,87.86254 -56.18772,126.1185 -14.76535,18.23402 -43.92981,47.0904 -82.36279,81.49275 -82.48273,73.83245 -109.48428,107.38855 -115.44231,143.46585 -2.97405,18.0086 2.1161,40.7123 12.29636,54.8458 2.66727,3.703 5.84084,8.106 7.05237,9.7844 2.07084,2.8688 1.74286,3.97 -5.4753,18.3847 -4.22295,8.4333 -10.70243,22.3336 -14.39885,30.8896 -3.69642,8.556 -7.3543,16.3518 -8.12863,17.3241 -3.26521,4.0999 -7.7775,1.7316 -19.02746,-9.9866 z"
         id="path68152"
         transform="scale(0.26458333)" />
      <path
         style="fill:#a0a0a0;stroke:none;stroke-width:1.41421"
         d="m 313.60186,1294.3655 c -2.52791,-1.2581 -4.5962,-3.0964 -4.5962,-4.085 0,-0.9887 2.68931,-8.6691 5.97624,-17.0676 4.45753,-11.3895 6.11189,-14.3715 6.51005,-11.7344 0.7655,5.07 -1.27339,35.3728 -2.37275,35.2649 -0.50663,-0.05 -2.98944,-1.1198 -5.51734,-2.3779 z"
         id="path68191"
         transform="scale(0.26458333)" />
      <path
         style="fill:#a0a0a0;stroke:none;stroke-width:1.41421"
         d="m 683.53962,1779.8231 c -49.37744,-8.0815 -90.66722,-39.8267 -117.08426,-90.0189 -15.29459,-29.0596 -24.97108,-58.9023 -39.60665,-122.1485 -15.60738,-67.4457 -18.16099,-77.8479 -24.99647,-101.8233 -9.84352,-34.5262 -20.69583,-60.9412 -31.71208,-77.1888 l -5.35115,-7.8922 3.3817,-22.9748 c 3.19348,-21.6961 7.71215,-59.5088 7.71215,-64.5361 0,-1.7553 1.4257,-1.1956 6.01041,2.3597 33.19802,25.7439 58.86179,58.928 75.32691,97.4002 13.60281,31.7841 22.07224,61.9995 34.68556,123.7436 21.32605,104.3943 36.83198,146.1269 63.45088,170.7713 17.98478,16.6507 45.83522,24.1375 68.9297,18.5297 2.58224,-0.627 4.76659,1.8138 14.57641,16.2875 6.34645,9.3638 16.54149,23.5762 22.65566,31.5833 l 11.11665,14.5583 -7.30829,2.5706 c -25.16197,8.8506 -59.09363,12.4926 -81.78713,8.7784 z"
         id="path68230"
         transform="scale(0.26458333)" />
      <path
         style="fill:#a0a0a0;stroke:none;stroke-width:1.41421"
         d="m 895.6679,1676.9037 c -10.23847,-12.1884 -15.6273,-19.4454 -14.43948,-19.4454 0.61498,0 8.02009,4.5636 16.4558,10.1413 l 15.33765,10.1413 -3.9626,3.2429 c -2.17942,1.7835 -4.68078,3.2657 -5.55857,3.2937 -0.87779,0.028 -4.40255,-3.2902 -7.8328,-7.3738 z"
         id="path68269"
         transform="scale(0.26458333)" />
      <path
         style="fill:#a0a0a0;stroke:none;stroke-width:1.41421"
         d="m 1369.6658,1660.7264 c -33.0097,-2.4918 -62.9286,-9.5128 -134.3503,-31.5276 -88.3395,-27.2294 -124.6153,-35.3801 -157.4647,-35.3801 -11.134,0 -16.3455,-0.623 -20.3246,-2.4294 -2.9432,-1.3362 -14.8973,-9.8096 -26.5645,-18.83 -11.6673,-9.0203 -26.4554,-20.1242 -32.86243,-24.6753 l -11.6492,-8.2749 5.28524,-2.3626 c 9.60369,-4.2932 32.55699,-11.466 45.89519,-14.3422 16.8631,-3.6362 57.113,-5.0829 76.8911,-2.7635 34.309,4.0233 60.8362,10.9249 133.1375,34.6385 78.9266,25.8867 111.3133,32.9229 145.3413,31.5765 21.0608,-0.8333 30.8307,-3.5442 44.1556,-12.2523 14.6278,-9.5594 25.3497,-22.6231 30.8277,-37.5605 1.4262,-3.8891 2.6554,-7.1932 2.7314,-7.3424 0.076,-0.1493 9.6682,-0.9638 21.3159,-1.8102 11.6476,-0.8463 28.7304,-2.5051 37.9617,-3.6862 9.2313,-1.1811 17.0668,-1.8648 17.4122,-1.5194 0.3454,0.3454 -0.6445,5.9858 -2.1997,12.5342 -9.6971,40.8301 -29.3822,72.9173 -58.1596,94.8018 -12.5994,9.5814 -37.5314,21.4729 -53.7402,25.6317 -20.0162,5.1357 -42.8969,7.1397 -63.6396,5.5739 z"
         id="path68308"
         transform="scale(0.26458333)" />
      <path
         style="fill:#a0a0a0;stroke:none;stroke-width:1.41421"
         d="m 1520.9867,1364.0931 c 18.6998,-9.4795 19.7373,-9.5454 19.7773,-1.2572 0.018,3.7611 -0.6053,4.6136 -3.8674,5.2886 -6.1552,1.2736 -30.6114,5.0726 -32.1734,4.9977 -0.7778,-0.037 6.5408,-4.1004 16.2635,-9.0291 z"
         id="path68347"
         transform="scale(0.26458333)" />
      <path
         style="fill:#a0a0a0;stroke:none;stroke-width:1.41421"
         d="m 1456.6521,1217.9914 c 8.7713,-52.5963 22.0326,-83.7947 52.5301,-123.5818 16.3852,-21.3761 41.0234,-46.1846 82.5152,-83.0851 79.5155,-70.71699 109.2299,-105.89879 117.9612,-139.66597 5.8993,-22.81447 -0.4134,-51.37758 -15.2485,-68.99516 l -4.6816,-5.55968 10.8421,-22.72459 c 5.9632,-12.49853 12.9675,-28.13396 15.5651,-34.74541 2.5977,-6.61145 4.9139,-12.26393 5.1472,-12.56106 0.716,-0.91209 16.3205,13.86207 24.9583,23.63031 16.1071,18.2149 27.1162,37.97858 34.4829,61.90362 3.6025,11.70013 3.8792,14.38074 3.928,38.04289 0.048,23.56493 -0.2382,26.50068 -3.8603,39.5215 -12.9731,46.63522 -39.9917,84.20188 -102.2764,142.20495 -93.1653,86.7608 -116.7712,112.1571 -132.602,142.659 l -6.1473,11.8442 -29.1349,11.7506 c -16.0242,6.4628 -34.6565,14.3382 -41.4053,17.5007 -6.7487,3.1626 -12.4846,5.7501 -12.7463,5.7501 -0.2618,0 -0.1842,-1.7501 0.1725,-3.8891 z"
         id="path68386"
         transform="scale(0.26458333)" />
      <path
         style="fill:#37a042;fill-opacity:1;stroke:none;stroke-width:1.41421"
         d="m 1571.1073,674.57987 c 0.5162,-8.9449 1.2716,-18.00202 1.6787,-20.12693 0.7392,-3.8588 0.7463,-3.86088 5.864,-1.72255 2.8181,1.1775 5.3592,2.37619 5.6468,2.66376 0.5784,0.57849 -12.076,33.50046 -13.3372,34.69817 -0.4349,0.41305 -0.3684,-6.56755 0.1477,-15.51245 z"
         id="path68425"
         transform="scale(0.26458333)" />
      <path
         style="fill:#9bad93;fill-opacity:1;stroke:none;stroke-width:1.41421"
         d="m 1265.014,509.68998 c -36.2243,-12.96003 -61.4565,-29.24173 -90.5635,-58.43856 -29.3616,-29.45213 -42.4285,-47.27546 -84.0672,-114.66859 -37.3734,-60.48961 -57.4473,-87.99016 -79.792,-109.31237 -21.82172,-20.82318 -36.15889,-27.81931 -59.32699,-28.94988 -17.55214,-0.85652 -26.9715,0.91281 -40.26625,7.56361 l -9.65496,4.82997 -20.00503,-14.39398 C 870.3353,188.40349 856.06403,178.618 849.62412,174.57465 l -11.70892,-7.35155 6.01357,-4.8755 c 18.77394,-15.22099 44.98852,-28.75758 67.05498,-34.62562 12.06041,-3.20717 16.73513,-3.69953 35.12512,-3.69953 18.25275,0 23.10271,0.50311 34.75256,3.60502 36.70367,9.77284 64.46357,27.588 94.67807,60.76072 20.228,22.20833 34.2798,41.506 69.0358,94.80798 57.6495,88.41173 80.232,117.4749 106.327,136.84056 l 9.2229,6.84445 3.9411,20.2582 c 2.1676,11.14201 6.4561,30.69913 9.5301,43.46025 3.0739,12.76113 5.4233,23.35841 5.2208,23.54953 -0.2025,0.19112 -6.4139,-1.81552 -13.8032,-4.45918 z"
         id="path70277"
         transform="scale(0.26458333)" />
      <path
         style="fill:#9bad93;fill-opacity:1;fill-rule:evenodd;stroke:#000000;stroke-width:53.4506;stroke-linecap:round;stroke-miterlimit:4;stroke-dasharray:none;stroke-opacity:1"
         d=""
         id="path72425"
         transform="scale(0.26458333)" />
      <path
         style="fill:#9bad93;fill-opacity:1;fill-rule:evenodd;stroke:none;stroke-width:53.4506;stroke-linecap:round;stroke-miterlimit:4;stroke-dasharray:none;stroke-opacity:1"
         d="m 755.26655,305.34406 c -9.29173,-2.30959 -17.13168,-4.43688 -17.42211,-4.72731 -0.29042,-0.29042 0.31154,-1.90257 1.33771,-3.58254 3.32634,-5.44567 15.24617,-2.21784 30.85713,8.35594 7.7731,5.26496 6.57925,5.26123 -14.77273,-0.0461 z"
         id="path72542"
         transform="scale(0.26458333)" />
      <path
         style="fill:#9bad93;fill-opacity:1;fill-rule:evenodd;stroke:none;stroke-width:53.4506;stroke-linecap:round;stroke-miterlimit:4;stroke-dasharray:none;stroke-opacity:1"
         d="m 191.81038,652.81249 c -3.4403,-24.6206 -1.21072,-54.40812 5.6746,-75.81336 15.30048,-47.5665 54.54409,-84.17985 108.88454,-101.58665 34.61017,-11.08662 66.42658,-15.2027 149.71435,-19.3685 92.01724,-4.60242 133.43809,-10.39154 161.93972,-22.63322 l 11.40554,-4.89879 25.4038,8.50915 c 13.97208,4.68003 32.40415,10.48816 40.96014,12.90694 8.55599,2.41879 16.38953,4.83974 17.40788,5.3799 1.24978,0.66292 -2.19735,4.36159 -10.6066,11.38055 -39.60599,33.05799 -83.18352,50.72318 -144.6871,58.65234 -15.87118,2.04614 -42.55742,3.48195 -118.79394,6.39151 -71.91955,2.7448 -110.85728,10.05115 -137.20811,25.74601 -23.32399,13.89202 -38.12338,39.44663 -38.16795,65.90586 l -0.0136,8.06212 -15.06078,6.30147 c -8.28343,3.46581 -24.10341,10.85318 -35.15551,16.41639 l -20.09474,10.11492 -1.60226,-11.46664 z"
         id="path72618"
         transform="scale(0.26458333)" />
      <path
         style="fill:#9bad93;fill-opacity:1;fill-rule:evenodd;stroke:none;stroke-width:53.4506;stroke-linecap:round;stroke-miterlimit:4;stroke-dasharray:none;stroke-opacity:1"
         d="m 255.99441,813.22104 c -2.63852,-5.85118 -2.63959,-6.02514 -0.0469,-7.61431 6.82203,-4.18153 29.50681,-16.45499 29.81626,-16.13191 0.19146,0.1999 -5.82077,6.97187 -13.36051,15.04883 l -13.70863,14.68538 z"
         id="path72657"
         transform="scale(0.26458333)" />
      <path
         style="fill:#9bad93;fill-opacity:1;fill-rule:evenodd;stroke:none;stroke-width:53.4506;stroke-linecap:round;stroke-miterlimit:4;stroke-dasharray:none;stroke-opacity:1"
         d="m 289.91378,1465.8717 c -22.28822,-9.2861 -37.26349,-19.0412 -54.26796,-35.3508 -13.83087,-13.2656 -21.80026,-23.9529 -29.56043,-39.6419 -21.66862,-43.808 -21.33444,-93.163 1.03894,-153.4421 7.53408,-20.2986 18.45709,-43.4801 50.64422,-107.4803 40.03334,-79.6014 53.83794,-114.5238 56.60384,-143.19456 l 0.99723,-10.33714 19.7774,-17.63289 c 10.87758,-9.69809 25.93437,-23.54229 33.45956,-30.76489 l 13.68214,-13.13199 1.43358,6.76803 c 4.48584,21.17806 5.04998,26.96498 5.07149,52.02287 0.0192,22.33404 -0.51869,29.58277 -3.18616,42.93927 -8.58513,42.9872 -22.10861,75.5419 -61.47181,147.9796 -41.95301,77.2034 -58.03248,117.65 -59.98267,150.8813 -0.49058,8.3596 -0.13521,17.1826 0.91139,22.6274 3.81565,19.8503 18.55244,41.075 35.16333,50.6441 6.74952,3.8882 8.46773,5.5563 8.0117,7.7782 -1.22674,5.9769 -4.89468,46.4119 -4.97226,54.8137 -0.0448,4.8542 -0.52213,11.1681 -1.06066,14.0308 l -0.97916,5.205 z"
         id="path72696"
         transform="scale(0.26458333)" />
      <path
         style="fill:#9bad93;fill-opacity:1;fill-rule:evenodd;stroke:none;stroke-width:53.4506;stroke-linecap:round;stroke-miterlimit:4;stroke-dasharray:none;stroke-opacity:1"
         d="m 457.89641,1491.0736 c -2.76739,-1.1217 -3.6331,-9.4735 -2.51074,-24.2217 1.18831,-15.6146 0.97857,-15.8443 8.43066,9.2335 l 4.72776,15.9099 -4.46234,-0.1116 c -2.45429,-0.062 -5.23769,-0.426 -6.18534,-0.8101 z"
         id="path72735"
         transform="scale(0.26458333)" />
      <path
         style="fill:#9bad93;fill-opacity:1;fill-rule:evenodd;stroke:none;stroke-width:53.4506;stroke-linecap:round;stroke-miterlimit:4;stroke-dasharray:none;stroke-opacity:1"
         d="m 924.6492,1822.3594 c -30.78589,-5.0406 -63.38467,-21.4226 -89.5561,-45.0048 -20.53402,-18.5026 -48.35436,-53.6128 -74.27168,-93.7334 -62.92776,-97.4136 -87.71643,-130.6136 -113.38806,-151.8632 -5.59678,-4.6328 -11.1439,-8.9648 -12.32694,-9.6269 -1.43872,-0.8052 -3.83487,-9.3891 -7.23619,-25.9228 -4.42245,-21.4975 -11.95013,-53.878 -14.1818,-61.0035 -0.66286,-2.1164 0.12676,-2.0756 8.15846,0.4218 42.67923,13.2708 82.46376,40.8121 114.91439,79.5508 19.41956,23.1825 32.96146,42.8623 63.98932,92.9928 41.23162,66.6163 64.34234,97.7288 87.17215,117.3545 19.62122,16.8674 36.90598,23.8712 58.8368,23.8407 14.06923,-0.019 24.17516,-2.4062 36.34506,-8.5833 l 8.73287,-4.4326 11.35322,8.6425 c 9.8536,7.5009 41.3822,29.0269 49.0706,33.5027 2.3708,1.3801 1.7401,2.2377 -6.24,8.4852 -36.8759,28.8697 -81.56686,41.8969 -121.3721,35.3795 z"
         id="path72774"
         transform="scale(0.26458333)" />
      <path
         style="fill:#9bad93;fill-opacity:1;fill-rule:evenodd;stroke:none;stroke-width:53.4506;stroke-linecap:round;stroke-miterlimit:4;stroke-dasharray:none;stroke-opacity:1"
         d="m 1144.0988,1654.8325 c -21.4141,-13.0126 -26.2476,-16.1458 -25.7208,-16.6726 0.3349,-0.3349 8.9414,1.3721 19.1256,3.7932 l 18.5168,4.402 -3.6739,5.5516 c -2.0206,3.0534 -3.7484,5.5409 -3.8395,5.5278 -0.091,-0.013 -2.0748,-1.184 -4.4082,-2.602 z"
         id="path72813"
         transform="scale(0.26458333)" />
      <path
         style="fill:#9bad93;fill-opacity:1;fill-rule:evenodd;stroke:none;stroke-width:53.4506;stroke-linecap:round;stroke-miterlimit:4;stroke-dasharray:none;stroke-opacity:1"
         d="m 1248.7506,1513.7571 c -15.1223,-5.2328 -55.4949,-17.7803 -65.3726,-20.3173 l -5.9755,-1.5347 7.3898,-6.6811 c 17.7806,-16.0753 35.6328,-27.8738 58.3014,-38.5314 23.8601,-11.2178 57.919,-21.0647 73.1021,-21.1347 3.6487,-0.017 6.9756,-0.5832 7.393,-1.2586 1.6598,-2.6856 39.5292,-5.6233 93.44,-7.2486 88.4191,-2.6656 123.2885,-6.7988 155.1951,-18.3958 22.2277,-8.0791 38.7934,-21.8388 47.8219,-39.7215 6.2452,-12.3697 7.1299,-15.6163 8.2006,-30.0939 l 0.9276,-12.5421 26.8701,-12.2368 c 14.7785,-6.7302 30.4697,-14.3041 34.8693,-16.8308 l 7.9992,-4.5941 1.7504,10.2811 c 2.4702,14.5091 2.1769,43.2107 -0.5903,57.7576 -9.4935,49.9084 -40.6769,89.0102 -89.0602,111.6757 -36.163,16.9408 -77.8401,24.1609 -162.8578,28.2131 -102.296,4.8758 -146.7723,10.9933 -175.8806,24.1917 -4.986,2.2607 -9.1366,4.0622 -9.2234,4.0032 -0.087,-0.059 -6.522,-2.3094 -14.3001,-5.001 z"
         id="path72852"
         transform="scale(0.26458333)" />
      <path
         style="fill:#9bad93;fill-opacity:1;fill-rule:evenodd;stroke:none;stroke-width:53.4506;stroke-linecap:round;stroke-miterlimit:4;stroke-dasharray:none;stroke-opacity:1"
         d="m 1608.6679,1155.7365 c 0,-1.4962 25.2262,-26.4963 25.9388,-25.7063 0.3144,0.3484 1.6163,2.688 2.8932,5.1991 l 2.3216,4.5655 -5.3237,3.302 c -7.6025,4.7152 -24.0161,13.7299 -24.999,13.7299 -0.457,0 -0.8309,-0.4906 -0.8309,-1.0902 z"
         id="path72891"
         transform="scale(0.26458333)" />
      <path
         style="fill:#9bad93;fill-opacity:1;fill-rule:evenodd;stroke:none;stroke-width:53.4506;stroke-linecap:round;stroke-miterlimit:4;stroke-dasharray:none;stroke-opacity:1"
         d="m 1507.7825,1019.6534 c -7.1382,-37.23702 -6.1744,-68.12542 3.3099,-106.07144 8.6516,-34.61465 23.468,-68.05257 60.5895,-136.73962 41.9806,-77.67788 57.2982,-118.27001 57.0005,-151.05284 -0.1472,-16.20855 -2.0511,-24.26258 -8.8685,-37.51472 -6.184,-12.02086 -17.182,-23.95568 -27.984,-30.36753 -8.1982,-4.86634 -7.893,-3.23883 -5.1725,-27.57717 1.0868,-9.72271 2.4334,-25.79172 2.9924,-35.70889 0.559,-9.91717 1.2382,-18.03122 1.5092,-18.03122 2.3414,0 28.6806,12.5495 37.3912,17.81532 51.4724,31.11641 78.9504,85.90765 73.4551,146.47002 -1.8113,19.96223 -10.7195,54.27151 -20.5012,78.95939 -4.4687,11.27835 -22.9323,50.09852 -41.0304,86.26703 -35.8531,71.65159 -44.6069,90.79213 -52.9505,115.77841 -5.5515,16.62501 -9.968,36.36794 -9.968,44.5602 0,3.92322 -2.0276,6.25487 -16.7739,19.28921 -9.2256,8.15459 -24.3829,21.94895 -33.6827,30.65405 l -16.9088,15.8274 z"
         id="path72930"
         transform="scale(0.26458333)" />
      <path
         style="fill:#9bad93;fill-opacity:1;fill-rule:evenodd;stroke:none;stroke-width:53.4506;stroke-linecap:round;stroke-miterlimit:4;stroke-dasharray:none;stroke-opacity:1"
         d="m 1430.7818,477.69534 c -7.3629,-24.25376 -7.3532,-22.57293 -0.1271,-22.05493 l 6.1863,0.44346 0.4004,16.85293 c 0.2203,9.26911 -0.1498,17.40328 -0.8225,18.07593 -0.6878,0.68787 -3.1544,-5.13934 -5.6371,-13.31739 z"
         id="path72969"
         transform="scale(0.26458333)" />
    </g>
  </g>
</svg>
